<?xml version="1.0" encoding="UTF-8"?>
<!DOCTYPE svg PUBLIC "-//W3C//DTD SVG 1.1//EN" "http://www.w3.org/Graphics/SVG/1.1/DTD/svg11.dtd">
<svg xmlns="http://www.w3.org/2000/svg" version="1.1" width="195px" height="167px" style="shape-rendering:geometricPrecision; text-rendering:geometricPrecision; image-rendering:optimizeQuality; fill-rule:evenodd; clip-rule:evenodd" xmlns:xlink="http://www.w3.org/1999/xlink">
<g><path style="opacity:1" fill="#1e2022" d="M -0.5,-0.5 C 64.5,-0.5 129.5,-0.5 194.5,-0.5C 194.5,55.1667 194.5,110.833 194.5,166.5C 129.5,166.5 64.5,166.5 -0.5,166.5C -0.5,142.833 -0.5,119.167 -0.5,95.5C 0.833333,97.5 2.16667,99.5 3.5,101.5C 3.14591,104.421 4.14591,106.754 6.5,108.5C 8.69221,109.859 10.3589,111.692 11.5,114C 12.745,114.791 14.0783,115.291 15.5,115.5C 16.6715,116.345 18.0048,117.011 19.5,117.5C 19.5394,118.583 19.8728,119.583 20.5,120.5C 23.7021,121.235 26.7021,122.402 29.5,124C 28.5,124.833 27.5,125.667 26.5,126.5C 28.836,127.712 31.0027,127.379 33,125.5C 34.8792,127.013 37.0459,127.679 39.5,127.5C 39.5,128.5 39.5,129.5 39.5,130.5C 44.2603,129.977 48.9269,129.977 53.5,130.5C 58.1408,131.127 62.8075,131.46 67.5,131.5C 67.8333,131.5 68.1667,131.5 68.5,131.5C 71.0345,133.579 74.0345,134.913 77.5,135.5C 80.2482,132.867 82.9148,132.867 85.5,135.5C 87.4147,135.784 89.0813,135.451 90.5,134.5C 92.0495,133.559 93.7162,132.893 95.5,132.5C 95.3354,135.518 95.502,138.518 96,141.5C 99.8351,140.008 100.335,137.842 97.5,135C 101.038,129.162 104.038,129.496 106.5,136C 103.518,138.191 103.185,140.524 105.5,143C 115.833,143.667 126.167,143.667 136.5,143C 127.834,142.572 119.167,141.906 110.5,141C 110.167,140.667 109.833,140.333 109.5,140C 110.227,138.601 110.727,137.101 111,135.5C 114.571,136.792 118.405,137.458 122.5,137.5C 126.167,137.333 129.833,137.167 133.5,137C 133.957,136.586 134.291,136.086 134.5,135.5C 128.196,135.571 121.863,135.237 115.5,134.5C 113.667,134.415 112.334,133.748 111.5,132.5C 122.182,131.498 132.849,131.331 143.5,132C 145.555,131.313 147.221,130.146 148.5,128.5C 151.785,127.676 155.118,127.176 158.5,127C 157.833,126.667 157.167,126.333 156.5,126C 157.571,125.148 158.571,124.315 159.5,123.5C 159.5,122.833 159.5,122.167 159.5,121.5C 162.327,121.416 164.994,120.75 167.5,119.5C 169.292,119.634 170.958,119.301 172.5,118.5C 173.833,120.833 173.833,123.167 172.5,125.5C 174.798,124.69 177.132,123.856 179.5,123C 180.38,121.644 180.714,120.144 180.5,118.5C 178.447,118.598 176.78,117.931 175.5,116.5C 180.088,117.191 182.421,115.524 182.5,111.5C 184.071,110.691 185.738,110.357 187.5,110.5C 187.643,108.738 187.309,107.071 186.5,105.5C 187.945,103.937 189.611,102.604 191.5,101.5C 189.792,96.7255 188.959,91.7255 189,86.5C 188.722,85.5842 188.222,84.9175 187.5,84.5C 186.035,83.5943 185.035,82.261 184.5,80.5C 183.675,79.6143 182.675,79.281 181.5,79.5C 181.167,79.5 180.833,79.5 180.5,79.5C 180.217,74.8908 177.883,72.2242 173.5,71.5C 173.5,70.5 173.5,69.5 173.5,68.5C 171.473,68.6621 169.473,68.4955 167.5,68C 166.246,63.8919 163.58,61.3919 159.5,60.5C 158.588,58.4048 157.421,56.4048 156,54.5C 153.833,53.5119 152,52.1786 150.5,50.5C 142.829,49.8718 135.162,48.8718 127.5,47.5C 125.928,44.0036 124.595,40.3369 123.5,36.5C 122.675,35.6143 121.675,35.281 120.5,35.5C 120.5,35.1667 120.5,34.8333 120.5,34.5C 120.167,33.8333 119.833,33.1667 119.5,32.5C 103.672,31.3386 87.672,31.1719 71.5,32C 70.5842,32.2784 69.9175,32.7784 69.5,33.5C 67.5,33.5 65.5,33.5 63.5,33.5C 63.8511,35.8695 64.0178,38.2028 64,40.5C 63.586,40.0426 63.086,39.7093 62.5,39.5C 62.4077,49.5733 57.4077,53.24 47.5,50.5C 44.6592,50.5597 41.9925,51.2264 39.5,52.5C 37.1346,53.0084 34.8013,53.6751 32.5,54.5C 31.5481,56.0453 31.2148,57.712 31.5,59.5C 26.8794,60.6885 25.8794,63.0219 28.5,66.5C 28.3333,67.5 28.1667,68.5 28,69.5C 27,68.1667 26,66.8333 25,65.5C 23.3523,66.717 21.519,67.5503 19.5,68C 18.7476,68.6708 18.4142,69.5041 18.5,70.5C 16.7376,71.2623 15.7376,72.5956 15.5,74.5C 10.3666,74.061 7.69994,76.3944 7.5,81.5C 7.5,82.1667 7.16667,82.5 6.5,82.5C 5.17793,82.33 4.01127,82.6634 3,83.5C 2.50204,86.4816 2.33537,89.4816 2.5,92.5C 1.5,92.5 0.5,92.5 -0.5,92.5C -0.5,61.5 -0.5,30.5 -0.5,-0.5 Z"/></g>
<g><path style="opacity:1" fill="#251a2f" d="M 119.5,32.5 C 103.658,32.1704 87.9911,32.5037 72.5,33.5C 72.1667,33.5 71.8333,33.5 71.5,33.5C 70.8333,33.5 70.1667,33.5 69.5,33.5C 69.9175,32.7784 70.5842,32.2784 71.5,32C 87.672,31.1719 103.672,31.3386 119.5,32.5 Z"/></g>
<g><path style="opacity:1" fill="#2b143f" d="M 72.5,33.5 C 87.9911,32.5037 103.658,32.1704 119.5,32.5C 119.833,33.1667 120.167,33.8333 120.5,34.5C 119.833,34.5 119.167,34.5 118.5,34.5C 103.342,33.5038 88.0091,33.1705 72.5,33.5 Z"/></g>
<g><path style="opacity:1" fill="#895ebe" d="M 71.5,33.5 C 71.8333,33.5 72.1667,33.5 72.5,33.5C 88.0091,33.1705 103.342,33.5038 118.5,34.5C 115.941,34.1984 113.607,34.5318 111.5,35.5C 106.167,35.5 100.833,35.5 95.5,35.5C 87.8045,35.1692 80.1378,35.5025 72.5,36.5C 71.0476,37.9397 70.0476,39.6064 69.5,41.5C 68.8333,41.5 68.1667,41.5 67.5,41.5C 68.3994,38.605 69.7328,35.9384 71.5,33.5 Z"/></g>
<g><path style="opacity:1" fill="#271b46" d="M 69.5,33.5 C 70.1667,33.5 70.8333,33.5 71.5,33.5C 69.7328,35.9384 68.3994,38.605 67.5,41.5C 66.6942,42.9972 66.0276,44.6639 65.5,46.5C 65.0431,47.2975 64.3764,47.6309 63.5,47.5C 64.3657,43.4458 65.5323,39.4458 67,35.5C 67.9947,34.9341 68.828,34.2674 69.5,33.5 Z"/></g>
<g><path style="opacity:1" fill="#cf62f0" d="M 112.5,37.5 C 113.919,36.5489 115.585,36.2155 117.5,36.5C 120.827,40.4869 123.16,45.1536 124.5,50.5C 125.357,51.4252 126.357,52.0919 127.5,52.5C 134.274,54.1514 141.274,55.1514 148.5,55.5C 143.167,55.5 137.833,55.5 132.5,55.5C 128.713,56.1856 125.546,55.1856 123,52.5C 122.454,49.6209 121.621,46.9542 120.5,44.5C 119.434,42.2986 118.767,39.9653 118.5,37.5C 116.5,37.5 114.5,37.5 112.5,37.5 Z"/></g>
<g><path style="opacity:1" fill="#cc5ffc" d="M 112.5,37.5 C 114.5,37.5 116.5,37.5 118.5,37.5C 118.767,39.9653 119.434,42.2986 120.5,44.5C 119.005,44.4148 118.005,45.0815 117.5,46.5C 118.821,51.0665 119.655,55.7332 120,60.5C 121.616,62.2195 123.116,63.8862 124.5,65.5C 123.652,67.4086 123.318,69.4086 123.5,71.5C 121.126,68.126 118.126,65.4593 114.5,63.5C 112.817,61.4864 110.817,59.8198 108.5,58.5C 108.104,55.9556 108.771,53.7889 110.5,52C 109.167,50.6667 107.833,49.3333 106.5,48C 109.607,47.4574 112.44,46.2907 115,44.5C 115.889,45.8882 116.389,45.7215 116.5,44C 116.266,42.2676 115.266,41.4342 113.5,41.5C 111.58,42.6694 109.58,43.6694 107.5,44.5C 107.167,44.1667 106.833,43.8333 106.5,43.5C 107.381,42.0295 108.714,41.1962 110.5,41C 111.252,40.3292 111.586,39.4959 111.5,38.5C 111.5,37.8333 111.833,37.5 112.5,37.5 Z"/></g>
<g><path style="opacity:1" fill="#996ff8" d="M 95.5,35.5 C 95.5,36.1667 95.1667,36.5 94.5,36.5C 88.1308,36.347 81.7974,36.6803 75.5,37.5C 75.3601,39.1238 76.0267,40.2904 77.5,41C 76.1667,43 76.1667,45 77.5,47C 76.2068,47.49 74.8734,47.6567 73.5,47.5C 75.0126,41.5009 74.3459,41.1675 71.5,46.5C 72.733,52.1523 72.733,57.8189 71.5,63.5C 72.8333,63.5 74.1667,63.5 75.5,63.5C 75.5,61.8333 75.5,60.1667 75.5,58.5C 78.0593,58.8016 80.3926,58.4682 82.5,57.5C 88.358,57.1778 94.0247,57.5111 99.5,58.5C 92.8039,58.391 86.1373,58.7243 79.5,59.5C 79.5,60.8333 79.5,62.1667 79.5,63.5C 77.5887,64.075 75.922,65.075 74.5,66.5C 71.0911,66.7328 68.5911,68.3995 67,71.5C 65.3262,75.0207 64.1596,78.6873 63.5,82.5C 62.209,82.7373 61.209,82.404 60.5,81.5C 59.9323,74.9468 60.599,68.6135 62.5,62.5C 61.6258,60.2534 61.2924,57.9201 61.5,55.5C 62.4916,55.6716 63.1583,55.3382 63.5,54.5C 65.1703,54.2488 66.6703,53.5822 68,52.5C 68.2401,48.7481 68.7401,45.0814 69.5,41.5C 70.0476,39.6064 71.0476,37.9397 72.5,36.5C 80.1378,35.5025 87.8045,35.1692 95.5,35.5 Z"/></g>
<g><path style="opacity:1" fill="#1f1e2a" d="M 69.5,33.5 C 68.828,34.2674 67.9947,34.9341 67,35.5C 65.5323,39.4458 64.3657,43.4458 63.5,47.5C 63.5,48.5 63.5,49.5 63.5,50.5C 58.0147,51.6364 52.6814,51.6364 47.5,50.5C 57.4077,53.24 62.4077,49.5733 62.5,39.5C 63.086,39.7093 63.586,40.0426 64,40.5C 64.0178,38.2028 63.8511,35.8695 63.5,33.5C 65.5,33.5 67.5,33.5 69.5,33.5 Z"/></g>
<g><path style="opacity:1" fill="#b063ca" d="M 111.5,35.5 C 113.607,34.5318 115.941,34.1984 118.5,34.5C 119.167,34.5 119.833,34.5 120.5,34.5C 120.5,34.8333 120.5,35.1667 120.5,35.5C 122.453,39.8558 124.12,44.3558 125.5,49C 125.836,50.0299 126.503,50.5299 127.5,50.5C 127.5,51.1667 127.5,51.8333 127.5,52.5C 126.357,52.0919 125.357,51.4252 124.5,50.5C 123.16,45.1536 120.827,40.4869 117.5,36.5C 115.735,35.5386 113.735,35.2053 111.5,35.5 Z"/></g>
<g><path style="opacity:1" fill="#b267fa" d="M 95.5,35.5 C 100.833,35.5 106.167,35.5 111.5,35.5C 113.735,35.2053 115.735,35.5386 117.5,36.5C 115.585,36.2155 113.919,36.5489 112.5,37.5C 111.833,37.5 111.5,37.8333 111.5,38.5C 108.813,38.3359 106.146,38.5026 103.5,39C 104.634,40.016 104.301,40.6827 102.5,41C 100.187,41.662 97.854,42.162 95.5,42.5C 95.5198,44.143 94.8532,45.4763 93.5,46.5C 95.1733,48.5225 95.8399,50.8559 95.5,53.5C 98.8388,53.7805 101.506,55.2805 103.5,58C 105.134,58.4935 106.801,58.6602 108.5,58.5C 110.817,59.8198 112.817,61.4864 114.5,63.5C 113.5,63.5 112.5,63.5 111.5,63.5C 109.109,60.083 105.775,58.7497 101.5,59.5C 101.167,59.5 100.833,59.5 100.5,59.5C 100.5,58.8333 100.167,58.5 99.5,58.5C 94.0247,57.5111 88.358,57.1778 82.5,57.5C 81.5,57.5 80.5,57.5 79.5,57.5C 80.8011,55.3281 81.8011,52.9948 82.5,50.5C 81.5,50.5 80.5,50.5 79.5,50.5C 79.5,48.8333 79.5,47.1667 79.5,45.5C 83.3751,45.9155 87.0418,45.4155 90.5,44C 88.5,43.6667 86.5,43.3333 84.5,43C 83.4829,41.9505 83.3162,40.7839 84,39.5C 87.7041,38.9108 91.2041,37.9108 94.5,36.5C 95.1667,36.5 95.5,36.1667 95.5,35.5 Z"/></g>
<g><path style="opacity:1" fill="#381948" d="M 120.5,35.5 C 121.675,35.281 122.675,35.6143 123.5,36.5C 124.595,40.3369 125.928,44.0036 127.5,47.5C 127.5,48.5 127.5,49.5 127.5,50.5C 126.503,50.5299 125.836,50.0299 125.5,49C 124.12,44.3558 122.453,39.8558 120.5,35.5 Z"/></g>
<g><path style="opacity:1" fill="#a26cfb" d="M 94.5,36.5 C 91.2041,37.9108 87.7041,38.9108 84,39.5C 83.3162,40.7839 83.4829,41.9505 84.5,43C 86.5,43.3333 88.5,43.6667 90.5,44C 87.0418,45.4155 83.3751,45.9155 79.5,45.5C 79.5,47.1667 79.5,48.8333 79.5,50.5C 80.5,50.5 81.5,50.5 82.5,50.5C 81.8011,52.9948 80.8011,55.3281 79.5,57.5C 80.5,57.5 81.5,57.5 82.5,57.5C 80.3926,58.4682 78.0593,58.8016 75.5,58.5C 75.5,60.1667 75.5,61.8333 75.5,63.5C 74.1667,63.5 72.8333,63.5 71.5,63.5C 72.733,57.8189 72.733,52.1523 71.5,46.5C 74.3459,41.1675 75.0126,41.5009 73.5,47.5C 74.8734,47.6567 76.2068,47.49 77.5,47C 76.1667,45 76.1667,43 77.5,41C 76.0267,40.2904 75.3601,39.1238 75.5,37.5C 81.7974,36.6803 88.1308,36.347 94.5,36.5 Z"/></g>
<g><path style="opacity:1" fill="#231c2a" d="M 127.5,47.5 C 135.162,48.8718 142.829,49.8718 150.5,50.5C 142.833,50.5 135.167,50.5 127.5,50.5C 127.5,49.5 127.5,48.5 127.5,47.5 Z"/></g>
<g><path style="opacity:1" fill="#745cb6" d="M 67.5,41.5 C 67.6488,44.6074 67.1488,47.6074 66,50.5C 65.3292,51.2524 64.4959,51.5858 63.5,51.5C 63.5,51.1667 63.5,50.8333 63.5,50.5C 63.5,49.5 63.5,48.5 63.5,47.5C 64.3764,47.6309 65.0431,47.2975 65.5,46.5C 66.0276,44.6639 66.6942,42.9972 67.5,41.5 Z"/></g>
<g><path style="opacity:1" fill="#be64fc" d="M 111.5,38.5 C 111.586,39.4959 111.252,40.3292 110.5,41C 108.714,41.1962 107.381,42.0295 106.5,43.5C 106.833,43.8333 107.167,44.1667 107.5,44.5C 109.58,43.6694 111.58,42.6694 113.5,41.5C 115.266,41.4342 116.266,42.2676 116.5,44C 116.389,45.7215 115.889,45.8882 115,44.5C 112.44,46.2907 109.607,47.4574 106.5,48C 107.833,49.3333 109.167,50.6667 110.5,52C 108.771,53.7889 108.104,55.9556 108.5,58.5C 106.801,58.6602 105.134,58.4935 103.5,58C 101.506,55.2805 98.8388,53.7805 95.5,53.5C 95.8399,50.8559 95.1733,48.5225 93.5,46.5C 94.8532,45.4763 95.5198,44.143 95.5,42.5C 97.854,42.162 100.187,41.662 102.5,41C 104.301,40.6827 104.634,40.016 103.5,39C 106.146,38.5026 108.813,38.3359 111.5,38.5 Z"/></g>
<g><path style="opacity:1" fill="#34133c" d="M 127.5,50.5 C 135.167,50.5 142.833,50.5 150.5,50.5C 152,52.1786 153.833,53.5119 156,54.5C 157.421,56.4048 158.588,58.4048 159.5,60.5C 158.833,60.1667 158.167,59.8333 157.5,59.5C 156.5,57.8333 155.167,56.5 153.5,55.5C 153.167,55.5 152.833,55.5 152.5,55.5C 151.942,54.2101 150.942,53.3768 149.5,53C 142.174,52.5003 134.841,52.3337 127.5,52.5C 127.5,51.8333 127.5,51.1667 127.5,50.5 Z"/></g>
<g><path style="opacity:1" fill="#1e1a45" d="M 47.5,50.5 C 52.6814,51.6364 58.0147,51.6364 63.5,50.5C 63.5,50.8333 63.5,51.1667 63.5,51.5C 56.0352,52.1015 48.7019,52.7681 41.5,53.5C 40.8333,53.5 40.1667,53.5 39.5,53.5C 39.5,53.1667 39.5,52.8333 39.5,52.5C 41.9925,51.2264 44.6592,50.5597 47.5,50.5 Z"/></g>
<g><path style="opacity:1" fill="#9273ed" d="M 67.5,41.5 C 68.1667,41.5 68.8333,41.5 69.5,41.5C 68.7401,45.0814 68.2401,48.7481 68,52.5C 66.6703,53.5822 65.1703,54.2488 63.5,54.5C 63.5,54.1667 63.5,53.8333 63.5,53.5C 63.5,52.8333 63.5,52.1667 63.5,51.5C 64.4959,51.5858 65.3292,51.2524 66,50.5C 67.1488,47.6074 67.6488,44.6074 67.5,41.5 Z"/></g>
<g><path style="opacity:1" fill="#5f569d" d="M 63.5,51.5 C 63.5,52.1667 63.5,52.8333 63.5,53.5C 56.1667,53.5 48.8333,53.5 41.5,53.5C 48.7019,52.7681 56.0352,52.1015 63.5,51.5 Z"/></g>
<g><path style="opacity:1" fill="#b45ac3" d="M 127.5,52.5 C 134.841,52.3337 142.174,52.5003 149.5,53C 150.942,53.3768 151.942,54.2101 152.5,55.5C 151.167,55.5 149.833,55.5 148.5,55.5C 141.274,55.1514 134.274,54.1514 127.5,52.5 Z"/></g>
<g><path style="opacity:1" fill="#20253f" d="M 39.5,52.5 C 39.5,52.8333 39.5,53.1667 39.5,53.5C 39.5,53.8333 39.5,54.1667 39.5,54.5C 36.8333,55.1667 35.1667,56.8333 34.5,59.5C 33.5,60.8333 32.5,60.8333 31.5,59.5C 31.2148,57.712 31.5481,56.0453 32.5,54.5C 34.8013,53.6751 37.1346,53.0084 39.5,52.5 Z"/></g>
<g><path style="opacity:1" fill="#8873fc" d="M 61.5,55.5 C 61.2924,57.9201 61.6258,60.2534 62.5,62.5C 60.599,68.6135 59.9323,74.9468 60.5,81.5C 59.6236,81.3691 58.9569,81.7025 58.5,82.5C 58.2521,85.6931 58.5855,89.0265 59.5,92.5C 59.4061,94.6885 58.7394,96.6885 57.5,98.5C 59.756,99.4209 60.756,101.088 60.5,103.5C 57.632,103.085 55.4653,104.085 54,106.5C 53.2904,105.027 52.1238,104.36 50.5,104.5C 51.6704,96.469 53.0037,88.469 54.5,80.5C 53.1274,74.3765 51.794,68.2098 50.5,62C 51.2865,59.9011 51.6199,57.7345 51.5,55.5C 54.8852,56.628 58.2186,56.628 61.5,55.5 Z"/></g>
<g><path style="opacity:1" fill="#6d72bc" d="M 39.5,54.5 C 38.1667,56.5 36.5,58.1667 34.5,59.5C 35.1667,56.8333 36.8333,55.1667 39.5,54.5 Z"/></g>
<g><path style="opacity:1" fill="#737afa" d="M 38.5,58.5 C 40.4093,59.1521 42.4093,60.4855 44.5,62.5C 43.3112,63.4287 41.9778,63.762 40.5,63.5C 40.6651,70.1921 40.3317,76.8587 39.5,83.5C 40.1197,88.8112 40.7863,93.8112 41.5,98.5C 38.7344,99.5347 38.0677,101.201 39.5,103.5C 38.1779,103.67 37.0113,103.337 36,102.5C 34.4328,89.5481 34.0995,76.5481 35,63.5C 35.2233,61.1192 36.39,59.4525 38.5,58.5 Z"/></g>
<g><path style="opacity:1" fill="#7d77fc" d="M 63.5,54.5 C 63.1583,55.3382 62.4916,55.6716 61.5,55.5C 58.2186,56.628 54.8852,56.628 51.5,55.5C 51.6199,57.7345 51.2865,59.9011 50.5,62C 51.794,68.2098 53.1274,74.3765 54.5,80.5C 53.0037,88.469 51.6704,96.469 50.5,104.5C 48.8102,104.856 47.8102,105.856 47.5,107.5C 44.4553,106.721 41.7886,105.387 39.5,103.5C 38.0677,101.201 38.7344,99.5347 41.5,98.5C 40.7863,93.8112 40.1197,88.8112 39.5,83.5C 40.3317,76.8587 40.6651,70.1921 40.5,63.5C 41.9778,63.762 43.3112,63.4287 44.5,62.5C 42.4093,60.4855 40.4093,59.1521 38.5,58.5C 40.6752,55.4382 43.5085,54.7715 47,56.5C 52.1973,54.5798 57.6973,53.9132 63.5,54.5 Z"/></g>
<g><path style="opacity:1" fill="#966bce" d="M 99.5,58.5 C 100.167,58.5 100.5,58.8333 100.5,59.5C 96.1539,59.3343 91.8206,59.501 87.5,60C 84.8261,60.6701 82.4927,61.8368 80.5,63.5C 80.1667,63.5 79.8333,63.5 79.5,63.5C 79.5,62.1667 79.5,60.8333 79.5,59.5C 86.1373,58.7243 92.8039,58.391 99.5,58.5 Z"/></g>
<g><path style="opacity:1" fill="#402463" d="M 100.5,59.5 C 100.833,59.5 101.167,59.5 101.5,59.5C 101.5,59.8333 101.5,60.1667 101.5,60.5C 96.9677,60.1818 92.6344,60.5151 88.5,61.5C 86.1175,63.0461 83.4509,63.7128 80.5,63.5C 82.4927,61.8368 84.8261,60.6701 87.5,60C 91.8206,59.501 96.1539,59.3343 100.5,59.5 Z"/></g>
<g><path style="opacity:1" fill="#9b5dc0" d="M 101.5,60.5 C 101.5,60.1667 101.5,59.8333 101.5,59.5C 105.775,58.7497 109.109,60.083 111.5,63.5C 108.167,62.5 104.833,61.5 101.5,60.5 Z"/></g>
<g><path style="opacity:1" fill="#db5bfb" d="M 120.5,44.5 C 121.621,46.9542 122.454,49.6209 123,52.5C 125.546,55.1856 128.713,56.1856 132.5,55.5C 134.054,56.9142 135.388,58.5808 136.5,60.5C 135.012,62.5772 133.012,63.5772 130.5,63.5C 130.302,72.1682 131.302,80.6682 133.5,89C 131.982,91.9247 132.649,94.258 135.5,96C 131.664,98.2124 131.664,100.546 135.5,103C 131.689,105.753 132.355,106.753 137.5,106C 136.833,105.667 136.167,105.333 135.5,105C 138.43,104.394 141.263,103.56 144,102.5C 144.383,103.056 144.883,103.389 145.5,103.5C 145.5,103.833 145.5,104.167 145.5,104.5C 143.952,104.821 143.285,105.821 143.5,107.5C 140.833,107.5 138.167,107.5 135.5,107.5C 133.08,107.292 130.747,107.626 128.5,108.5C 127.516,105.572 127.183,102.572 127.5,99.5C 127.5,98.1667 127.5,96.8333 127.5,95.5C 128.5,95.5 129.5,95.5 130.5,95.5C 130.676,90.1203 130.342,84.787 129.5,79.5C 128.5,79.5 127.5,79.5 126.5,79.5C 126.662,77.4727 126.495,75.4727 126,73.5C 125.329,72.7476 124.496,72.4142 123.5,72.5C 123.5,72.1667 123.5,71.8333 123.5,71.5C 123.318,69.4086 123.652,67.4086 124.5,65.5C 123.116,63.8862 121.616,62.2195 120,60.5C 119.655,55.7332 118.821,51.0665 117.5,46.5C 118.005,45.0815 119.005,44.4148 120.5,44.5 Z"/></g>
<g><path style="opacity:1" fill="#e857fd" d="M 132.5,55.5 C 137.833,55.5 143.167,55.5 148.5,55.5C 149.833,55.5 151.167,55.5 152.5,55.5C 152.833,55.5 153.167,55.5 153.5,55.5C 153.5,56.1667 153.5,56.8333 153.5,57.5C 148.511,56.7784 143.511,56.6117 138.5,57C 140.025,58.0086 141.692,58.5086 143.5,58.5C 143.126,73.5693 143.792,88.5693 145.5,103.5C 144.883,103.389 144.383,103.056 144,102.5C 141.263,103.56 138.43,104.394 135.5,105C 136.167,105.333 136.833,105.667 137.5,106C 132.355,106.753 131.689,105.753 135.5,103C 131.664,100.546 131.664,98.2124 135.5,96C 132.649,94.258 131.982,91.9247 133.5,89C 131.302,80.6682 130.302,72.1682 130.5,63.5C 133.012,63.5772 135.012,62.5772 136.5,60.5C 135.388,58.5808 134.054,56.9142 132.5,55.5 Z"/></g>
<g><path style="opacity:1" fill="#f454fb" d="M 153.5,57.5 C 155.828,58.7356 156.994,60.7356 157,63.5C 157.783,75.6893 157.617,87.856 156.5,100C 155.833,102.151 154.5,103.651 152.5,104.5C 150.167,104.5 147.833,104.5 145.5,104.5C 145.5,104.167 145.5,103.833 145.5,103.5C 143.792,88.5693 143.126,73.5693 143.5,58.5C 141.692,58.5086 140.025,58.0086 138.5,57C 143.511,56.6117 148.511,56.7784 153.5,57.5 Z"/></g>
<g><path style="opacity:1" fill="#281835" d="M 88.5,61.5 C 92.6344,60.5151 96.9677,60.1818 101.5,60.5C 104.833,61.5 108.167,62.5 111.5,63.5C 111.5,63.8333 111.5,64.1667 111.5,64.5C 111.5,65.1667 111.5,65.8333 111.5,66.5C 110.127,66.6567 108.793,66.49 107.5,66C 106.183,64.2328 104.516,62.8995 102.5,62C 97.8452,61.5008 93.1785,61.3342 88.5,61.5 Z"/></g>
<g><path style="opacity:1" fill="#432d73" d="M 79.5,63.5 C 79.5,63.8333 79.5,64.1667 79.5,64.5C 78.078,65.925 76.4113,66.925 74.5,67.5C 74.5,67.1667 74.5,66.8333 74.5,66.5C 75.922,65.075 77.5887,64.075 79.5,63.5 Z"/></g>
<g><path style="opacity:1" fill="#3a1349" d="M 111.5,64.5 C 114.109,65.4431 116.109,67.1097 117.5,69.5C 115.456,68.4918 113.456,67.4918 111.5,66.5C 111.5,65.8333 111.5,65.1667 111.5,64.5 Z"/></g>
<g><path style="opacity:1" fill="#20212f" d="M 31.5,59.5 C 31.5,60.8333 31.5,62.1667 31.5,63.5C 29.6565,65.2789 28.9898,67.6122 29.5,70.5C 28.5,70.5 27.5,70.5 26.5,70.5C 26.5,69.8333 26.1667,69.5 25.5,69.5C 23.1231,68.3279 20.7898,68.6612 18.5,70.5C 18.4142,69.5041 18.7476,68.6708 19.5,68C 21.519,67.5503 23.3523,66.717 25,65.5C 26,66.8333 27,68.1667 28,69.5C 28.1667,68.5 28.3333,67.5 28.5,66.5C 25.8794,63.0219 26.8794,60.6885 31.5,59.5 Z"/></g>
<g><path style="opacity:1" fill="#1e2021" d="M 76.5,68.5 C 77.7095,68.0679 78.7095,67.4013 79.5,66.5C 83.6171,65.6455 87.6171,64.4788 91.5,63C 94.8333,62.3333 98.1667,62.3333 101.5,63C 98.9648,63.9282 97.9648,65.7615 98.5,68.5C 93.8631,69.2745 89.1964,69.4412 84.5,69C 81.2186,70.3104 78.2186,72.1437 75.5,74.5C 75.1667,74.1667 74.8333,73.8333 74.5,73.5C 75.4565,71.9246 76.1231,70.258 76.5,68.5 Z"/></g>
<g><path style="opacity:1" fill="#1e1b3f" d="M 25.5,69.5 C 21.7885,70.4042 18.4551,72.0709 15.5,74.5C 15.7376,72.5956 16.7376,71.2623 18.5,70.5C 20.7898,68.6612 23.1231,68.3279 25.5,69.5 Z"/></g>
<g><path style="opacity:1" fill="#6c71cd" d="M 39.5,53.5 C 40.1667,53.5 40.8333,53.5 41.5,53.5C 48.8333,53.5 56.1667,53.5 63.5,53.5C 63.5,53.8333 63.5,54.1667 63.5,54.5C 57.6973,53.9132 52.1973,54.5798 47,56.5C 43.5085,54.7715 40.6752,55.4382 38.5,58.5C 36.39,59.4525 35.2233,61.1192 35,63.5C 34.0995,76.5481 34.4328,89.5481 36,102.5C 37.0113,103.337 38.1779,103.67 39.5,103.5C 41.7886,105.387 44.4553,106.721 47.5,107.5C 47.5,107.833 47.5,108.167 47.5,108.5C 46.5,108.5 45.5,108.5 44.5,108.5C 40.2393,106.516 35.906,104.516 31.5,102.5C 31.5,102.167 31.5,101.833 31.5,101.5C 31.5,88.8333 31.5,76.1667 31.5,63.5C 31.5,62.1667 31.5,60.8333 31.5,59.5C 32.5,60.8333 33.5,60.8333 34.5,59.5C 36.5,58.1667 38.1667,56.5 39.5,54.5C 39.5,54.1667 39.5,53.8333 39.5,53.5 Z"/></g>
<g><path style="opacity:1" fill="#8b71d3" d="M 74.5,66.5 C 74.5,66.8333 74.5,67.1667 74.5,67.5C 73.1667,68.8333 71.8333,70.1667 70.5,71.5C 68.4131,72.5846 67.0798,74.2512 66.5,76.5C 66.5,76.8333 66.5,77.1667 66.5,77.5C 65.2513,80.0873 64.2513,82.754 63.5,85.5C 63.5,84.5 63.5,83.5 63.5,82.5C 64.1596,78.6873 65.3262,75.0207 67,71.5C 68.5911,68.3995 71.0911,66.7328 74.5,66.5 Z"/></g>
<g><path style="opacity:1" fill="#451c55" d="M 117.5,69.5 C 121.588,71.5867 123.588,74.92 123.5,79.5C 122.833,78.8333 122.167,78.1667 121.5,77.5C 120.571,74.5881 119.238,71.9214 117.5,69.5 Z"/></g>
<g><path style="opacity:1" fill="#b05fca" d="M 111.5,64.5 C 111.5,64.1667 111.5,63.8333 111.5,63.5C 112.5,63.5 113.5,63.5 114.5,63.5C 118.126,65.4593 121.126,68.126 123.5,71.5C 123.5,71.8333 123.5,72.1667 123.5,72.5C 125.168,74.4786 125.834,76.812 125.5,79.5C 125.167,79.5 124.833,79.5 124.5,79.5C 124.167,79.5 123.833,79.5 123.5,79.5C 123.588,74.92 121.588,71.5867 117.5,69.5C 116.109,67.1097 114.109,65.4431 111.5,64.5 Z"/></g>
<g><path style="opacity:1" fill="#c163d6" d="M 166.5,70.5 C 166.833,70.5 167.167,70.5 167.5,70.5C 171.692,73.6793 176.025,76.6793 180.5,79.5C 180.833,79.5 181.167,79.5 181.5,79.5C 182.441,81.0495 183.107,82.7162 183.5,84.5C 182.391,84.4431 181.391,84.1098 180.5,83.5C 178.896,82.713 178.229,81.3797 178.5,79.5C 175.813,78.6644 173.48,77.1644 171.5,75C 169.866,74.5065 168.199,74.3398 166.5,74.5C 166.185,79.3229 168.185,82.6562 172.5,84.5C 173.127,85.4168 173.461,86.4168 173.5,87.5C 171.305,85.5756 168.972,83.9089 166.5,82.5C 164.006,78.2629 164.006,74.2629 166.5,70.5 Z"/></g>
<g><path style="opacity:1" fill="#6b5eab" d="M 25.5,69.5 C 26.1667,69.5 26.5,69.8333 26.5,70.5C 26.5,74.1667 26.5,77.8333 26.5,81.5C 26.1667,81.5 25.8333,81.5 25.5,81.5C 25.5,78.5 25.5,75.5 25.5,72.5C 21.8793,72.7084 18.5459,73.7084 15.5,75.5C 15.5,75.1667 15.5,74.8333 15.5,74.5C 18.4551,72.0709 21.7885,70.4042 25.5,69.5 Z"/></g>
<g><path style="opacity:1" fill="#76468b" d="M 166.5,70.5 C 164.006,74.2629 164.006,78.2629 166.5,82.5C 165.504,82.5858 164.671,82.2524 164,81.5C 163.501,77.8484 163.335,74.1817 163.5,70.5C 164.5,69.1667 165.5,69.1667 166.5,70.5 Z"/></g>
<g><path style="opacity:1" fill="#624f95" d="M 70.5,71.5 C 69.9202,73.7488 68.5869,75.4154 66.5,76.5C 67.0798,74.2512 68.4131,72.5846 70.5,71.5 Z"/></g>
<g><path style="opacity:1" fill="#251c40" d="M 79.5,64.5 C 79.5,65.1667 79.5,65.8333 79.5,66.5C 78.7095,67.4013 77.7095,68.0679 76.5,68.5C 73.723,70.6789 71.3897,73.3456 69.5,76.5C 68.8333,76.5 68.5,76.8333 68.5,77.5C 66.7611,84.588 66.0944,91.9213 66.5,99.5C 65.2983,92.3156 65.2983,84.9823 66.5,77.5C 66.5,77.1667 66.5,76.8333 66.5,76.5C 68.5869,75.4154 69.9202,73.7488 70.5,71.5C 71.8333,70.1667 73.1667,68.8333 74.5,67.5C 76.4113,66.925 78.078,65.925 79.5,64.5 Z"/></g>
<g><path style="opacity:1" fill="#401848" d="M 167.5,70.5 C 169.621,70.3253 171.621,70.6586 173.5,71.5C 177.883,72.2242 180.217,74.8908 180.5,79.5C 176.025,76.6793 171.692,73.6793 167.5,70.5 Z"/></g>
<g><path style="opacity:1" fill="#1f2046" d="M 15.5,74.5 C 15.5,74.8333 15.5,75.1667 15.5,75.5C 12.8455,77.4149 10.1788,79.4149 7.5,81.5C 7.69994,76.3944 10.3666,74.061 15.5,74.5 Z"/></g>
<g><path style="opacity:1" fill="#c960fb" d="M 100.5,76.5 C 102.099,76.2322 103.432,76.5655 104.5,77.5C 103.5,77.5 102.5,77.5 101.5,77.5C 101.776,83.5471 102.443,89.5471 103.5,95.5C 98.5475,95.1902 98.2142,96.1902 102.5,98.5C 102.026,101.025 102.692,103.359 104.5,105.5C 103.432,106.434 102.099,106.768 100.5,106.5C 99.381,104.516 99.7144,102.683 101.5,101C 101.387,99.7202 100.72,98.8869 99.5,98.5C 98.3361,92.1928 98.1694,85.8595 99,79.5C 99.2321,78.2625 99.7321,77.2625 100.5,76.5 Z"/></g>
<g><path style="opacity:1" fill="#c15cce" d="M 95.5,74.5 C 95.5,74.1667 95.5,73.8333 95.5,73.5C 98.4824,73.9629 101.482,74.2962 104.5,74.5C 107.031,75.9067 109.365,77.5734 111.5,79.5C 111.654,81.9699 112.654,83.9699 114.5,85.5C 114.495,89.5341 114.162,93.5341 113.5,97.5C 113.167,97.5 112.833,97.5 112.5,97.5C 112.809,92.7325 112.309,88.0658 111,83.5C 109.693,81.8082 108.193,80.4749 106.5,79.5C 105.833,78.8333 105.167,78.1667 104.5,77.5C 103.432,76.5655 102.099,76.2322 100.5,76.5C 99.2196,75.0687 97.5529,74.4021 95.5,74.5 Z"/></g>
<g><path style="opacity:1" fill="#3f1448" d="M 111.5,79.5 C 113.614,80.784 114.614,82.784 114.5,85.5C 112.654,83.9699 111.654,81.9699 111.5,79.5 Z"/></g>
<g><path style="opacity:1" fill="#1a1d3a" d="M 6.5,82.5 C 6.5,83.1667 6.5,83.8333 6.5,84.5C 5.03374,85.347 4.20041,86.6803 4,88.5C 3.50098,92.8206 3.33432,97.1539 3.5,101.5C 2.16667,99.5 0.833333,97.5 -0.5,95.5C -0.5,94.5 -0.5,93.5 -0.5,92.5C 0.5,92.5 1.5,92.5 2.5,92.5C 2.33537,89.4816 2.50204,86.4816 3,83.5C 4.01127,82.6634 5.17793,82.33 6.5,82.5 Z"/></g>
<g><path style="opacity:1" fill="#5e5fa5" d="M 78.5,79.5 C 78.8333,79.5 79.1667,79.5 79.5,79.5C 79.4828,81.5648 79.1495,83.5648 78.5,85.5C 78.1667,85.5 77.8333,85.5 77.5,85.5C 77.5172,83.4352 77.8505,81.4352 78.5,79.5 Z"/></g>
<g><path style="opacity:1" fill="#986ffb" d="M 95.5,73.5 C 95.5,73.8333 95.5,74.1667 95.5,74.5C 95.5,74.8333 95.5,75.1667 95.5,75.5C 93.8333,75.5 92.1667,75.5 90.5,75.5C 90.9987,79.4752 91.332,83.4752 91.5,87.5C 91.3593,90.8195 90.6927,93.9862 89.5,97C 89.7649,99.1515 90.7649,100.818 92.5,102C 89.9188,105.152 90.9188,106.652 95.5,106.5C 94.9032,107.139 94.0698,107.472 93,107.5C 90.4564,106.929 87.9564,106.262 85.5,105.5C 85.5,105.167 85.5,104.833 85.5,104.5C 83.8989,101.577 84.2322,98.9102 86.5,96.5C 84.4136,91.0958 83.4136,85.4291 83.5,79.5C 86.5354,75.8069 90.5354,73.8069 95.5,73.5 Z"/></g>
<g><path style="opacity:1" fill="#2a192c" d="M 159.5,60.5 C 163.58,61.3919 166.246,63.8919 167.5,68C 169.473,68.4955 171.473,68.6621 173.5,68.5C 173.5,69.5 173.5,70.5 173.5,71.5C 171.621,70.6586 169.621,70.3253 167.5,70.5C 167.167,70.5 166.833,70.5 166.5,70.5C 165.5,69.1667 164.5,69.1667 163.5,70.5C 162.355,74.3112 162.188,78.3112 163,82.5C 163.995,83.0659 164.828,83.7326 165.5,84.5C 164.351,84.7911 163.684,85.6244 163.5,87C 163.77,88.5143 164.103,90.0143 164.5,91.5C 163.245,94.0134 162.578,96.6801 162.5,99.5C 162.585,101.333 163.252,102.666 164.5,103.5C 162.996,106.697 161.33,107.03 159.5,104.5C 159.5,89.8333 159.5,75.1667 159.5,60.5 Z"/></g>
<g><path style="opacity:1" fill="#8b74e0" d="M 98.5,72.5 C 100.786,72.595 102.786,73.2616 104.5,74.5C 101.482,74.2962 98.4824,73.9629 95.5,73.5C 90.5354,73.8069 86.5354,75.8069 83.5,79.5C 81.8793,79.7869 80.8793,80.7869 80.5,82.5C 82.2166,85.8145 81.5499,86.8145 78.5,85.5C 79.1495,83.5648 79.4828,81.5648 79.5,79.5C 84.8171,74.6143 91.1504,72.281 98.5,72.5 Z"/></g>
<g><path style="opacity:1" fill="#1e2021" d="M 121.5,77.5 C 122.167,78.1667 122.833,78.8333 123.5,79.5C 123.924,83.7032 123.424,87.7032 122,91.5C 120.667,89.5 119,87.8333 117,86.5C 115.798,84.3225 115.298,81.9892 115.5,79.5C 117.5,78.8333 119.5,78.1667 121.5,77.5 Z"/></g>
<g><path style="opacity:1" fill="#332968" d="M 25.5,81.5 C 23.9767,84.3644 21.6433,86.031 18.5,86.5C 20.5496,84.4525 22.883,82.7859 25.5,81.5 Z"/></g>
<g><path style="opacity:1" fill="#1c1d31" d="M 29.5,95.5 C 29.8242,91.4454 29.4909,87.4454 28.5,83.5C 27.3777,84.6302 26.0443,85.2969 24.5,85.5C 25.6005,84.3951 26.2671,83.0618 26.5,81.5C 27.1408,79.9577 28.1408,78.6243 29.5,77.5C 30.8166,83.6544 30.8166,89.6544 29.5,95.5 Z"/></g>
<g><path style="opacity:1" fill="#221e41" d="M 25.5,81.5 C 25.8333,81.5 26.1667,81.5 26.5,81.5C 26.2671,83.0618 25.6005,84.3951 24.5,85.5C 21.0068,87.8532 18.3402,90.8532 16.5,94.5C 17.7472,96.323 18.4139,98.323 18.5,100.5C 16.0118,98.9444 15.0118,96.6111 15.5,93.5C 15.0118,90.3889 16.0118,88.0556 18.5,86.5C 21.6433,86.031 23.9767,84.3644 25.5,81.5 Z"/></g>
<g><path style="opacity:1" fill="#1e1d41" d="M 31.5,63.5 C 31.5,76.1667 31.5,88.8333 31.5,101.5C 29.6921,100.082 29.0254,98.0821 29.5,95.5C 30.8166,89.6544 30.8166,83.6544 29.5,77.5C 28.1408,78.6243 27.1408,79.9577 26.5,81.5C 26.5,77.8333 26.5,74.1667 26.5,70.5C 27.5,70.5 28.5,70.5 29.5,70.5C 28.9898,67.6122 29.6565,65.2789 31.5,63.5 Z"/></g>
<g><path style="opacity:1" fill="#bd64fb" d="M 95.5,74.5 C 97.5529,74.4021 99.2196,75.0687 100.5,76.5C 99.7321,77.2625 99.2321,78.2625 99,79.5C 98.1694,85.8595 98.3361,92.1928 99.5,98.5C 100.72,98.8869 101.387,99.7202 101.5,101C 99.7144,102.683 99.381,104.516 100.5,106.5C 98.8333,106.5 97.1667,106.5 95.5,106.5C 95.5,96.1667 95.5,85.8333 95.5,75.5C 95.5,75.1667 95.5,74.8333 95.5,74.5 Z"/></g>
<g><path style="opacity:1" fill="#dc5afd" d="M 104.5,77.5 C 105.167,78.1667 105.833,78.8333 106.5,79.5C 106.34,81.1992 106.506,82.8659 107,84.5C 108.644,86.0638 110.144,87.7305 111.5,89.5C 109.187,91.9895 107.853,94.9895 107.5,98.5C 105.833,98.5 104.167,98.5 102.5,98.5C 98.2142,96.1902 98.5475,95.1902 103.5,95.5C 102.443,89.5471 101.776,83.5471 101.5,77.5C 102.5,77.5 103.5,77.5 104.5,77.5 Z"/></g>
<g><path style="opacity:1" fill="#47164b" d="M 114.5,85.5 C 115.479,88.6248 115.813,91.9581 115.5,95.5C 114.833,96.1667 114.167,96.8333 113.5,97.5C 114.162,93.5341 114.495,89.5341 114.5,85.5 Z"/></g>
<g><path style="opacity:1" fill="#1f2022" d="M 165.5,84.5 C 172.372,88.2877 174.372,93.9544 171.5,101.5C 168.921,101.394 166.588,102.061 164.5,103.5C 163.252,102.666 162.585,101.333 162.5,99.5C 162.578,96.6801 163.245,94.0134 164.5,91.5C 164.103,90.0143 163.77,88.5143 163.5,87C 163.684,85.6244 164.351,84.7911 165.5,84.5 Z"/></g>
<g><path style="opacity:1" fill="#d261ef" d="M 123.5,72.5 C 124.496,72.4142 125.329,72.7476 126,73.5C 126.495,75.4727 126.662,77.4727 126.5,79.5C 127.5,79.5 128.5,79.5 129.5,79.5C 130.342,84.787 130.676,90.1203 130.5,95.5C 129.5,95.5 128.5,95.5 127.5,95.5C 127.666,91.1539 127.499,86.8206 127,82.5C 126.617,81.944 126.117,81.6107 125.5,81.5C 125.5,80.8333 125.5,80.1667 125.5,79.5C 125.834,76.812 125.168,74.4786 123.5,72.5 Z"/></g>
<g><path style="opacity:1" fill="#c961cc" d="M 153.5,55.5 C 155.167,56.5 156.5,57.8333 157.5,59.5C 158.467,74.1183 158.8,88.785 158.5,103.5C 156.5,103.833 154.5,104.167 152.5,104.5C 154.5,103.651 155.833,102.151 156.5,100C 157.617,87.856 157.783,75.6893 157,63.5C 156.994,60.7356 155.828,58.7356 153.5,57.5C 153.5,56.8333 153.5,56.1667 153.5,55.5 Z"/></g>
<g><path style="opacity:1" fill="#691b6d" d="M 157.5,59.5 C 158.167,59.8333 158.833,60.1667 159.5,60.5C 159.5,75.1667 159.5,89.8333 159.5,104.5C 154.216,106.039 148.882,107.373 143.5,108.5C 143.5,108.167 143.5,107.833 143.5,107.5C 146.785,107.072 149.785,106.072 152.5,104.5C 154.5,104.167 156.5,103.833 158.5,103.5C 158.8,88.785 158.467,74.1183 157.5,59.5 Z"/></g>
<g><path style="opacity:1" fill="#2e2356" d="M 66.5,77.5 C 65.2983,84.9823 65.2983,92.3156 66.5,99.5C 66.3284,100.492 66.6618,101.158 67.5,101.5C 68.4552,103.746 69.1218,106.079 69.5,108.5C 66.3403,104.681 64.3403,100.348 63.5,95.5C 63.5,92.1667 63.5,88.8333 63.5,85.5C 64.2513,82.754 65.2513,80.0873 66.5,77.5 Z"/></g>
<g><path style="opacity:1" fill="#20244a" d="M 76.5,79.5 C 77.1667,79.5 77.8333,79.5 78.5,79.5C 77.8505,81.4352 77.5172,83.4352 77.5,85.5C 76.5206,88.6248 76.1872,91.9581 76.5,95.5C 75.2353,94.4855 74.5687,92.9855 74.5,91C 74.6527,88.7841 74.9861,86.6175 75.5,84.5C 76.3007,82.9582 76.634,81.2915 76.5,79.5 Z"/></g>
<g><path style="opacity:1" fill="#e25cf3" d="M 106.5,79.5 C 108.193,80.4749 109.693,81.8082 111,83.5C 112.309,88.0658 112.809,92.7325 112.5,97.5C 112.011,98.9952 111.345,100.329 110.5,101.5C 108.115,102.292 106.115,103.626 104.5,105.5C 102.692,103.359 102.026,101.025 102.5,98.5C 104.167,98.5 105.833,98.5 107.5,98.5C 107.853,94.9895 109.187,91.9895 111.5,89.5C 110.144,87.7305 108.644,86.0638 107,84.5C 106.506,82.8659 106.34,81.1992 106.5,79.5 Z"/></g>
<g><path style="opacity:1" fill="#696dc0" d="M 77.5,85.5 C 77.1825,90.6716 77.8492,95.6716 79.5,100.5C 78.5,99.1667 77.5,97.8333 76.5,96.5C 76.5,96.1667 76.5,95.8333 76.5,95.5C 76.1872,91.9581 76.5206,88.6248 77.5,85.5 Z"/></g>
<g><path style="opacity:1" fill="#c25dca" d="M 173.5,88.5 C 176.136,88.4912 177.469,89.8245 177.5,92.5C 177.36,94.0296 176.693,95.0296 175.5,95.5C 175.834,92.812 175.168,90.4786 173.5,88.5 Z"/></g>
<g><path style="opacity:1" fill="#1e201f" d="M 69.5,76.5 C 71.8333,76.5 74.1667,76.5 76.5,76.5C 76.5,77.5 76.5,78.5 76.5,79.5C 76.634,81.2915 76.3007,82.9582 75.5,84.5C 73.2295,87.772 71.2295,91.272 69.5,95C 71.6538,96.1838 71.3205,97.3504 68.5,98.5C 67.3391,94.2047 67.1725,89.8713 68,85.5C 69.1545,84.2567 70.4878,83.2567 72,82.5C 72.4828,81.552 72.6495,80.552 72.5,79.5C 70.5168,79.8432 69.1834,79.1765 68.5,77.5C 68.5,76.8333 68.8333,76.5 69.5,76.5 Z"/></g>
<g><path style="opacity:1" fill="#b852b8" d="M 183.5,84.5 C 184.79,85.0577 185.623,86.0577 186,87.5C 186.81,91.3575 186.643,95.0242 185.5,98.5C 185.478,93.7277 184.811,89.0611 183.5,84.5 Z"/></g>
<g><path style="opacity:1" fill="#7779f5" d="M 14.5,79.5 C 14.6189,81.1834 14.9522,82.85 15.5,84.5C 15.3146,86.1958 14.4813,87.5291 13,88.5C 12.7744,91.095 12.2744,93.595 11.5,96C 12.4123,98.2508 13.4123,100.417 14.5,102.5C 12.8506,101.351 11.3506,100.018 10,98.5C 9.5,98.8333 9,99.1667 8.5,99.5C 9.30937,101.071 9.64271,102.738 9.5,104.5C 6.1953,100.863 4.86197,96.5292 5.5,91.5C 6.95941,86.3701 9.95941,82.3701 14.5,79.5 Z"/></g>
<g><path style="opacity:1" fill="#7972d7" d="M 25.5,81.5 C 22.883,82.7859 20.5496,84.4525 18.5,86.5C 16.0118,88.0556 15.0118,90.3889 15.5,93.5C 15.0118,96.6111 16.0118,98.9444 18.5,100.5C 19.3387,102.384 20.672,103.717 22.5,104.5C 22.8333,105.167 23.1667,105.833 23.5,106.5C 21.5648,105.85 19.5648,105.517 17.5,105.5C 17.5,104.5 17.5,103.5 17.5,102.5C 16.5,102.5 15.5,102.5 14.5,102.5C 13.4123,100.417 12.4123,98.2508 11.5,96C 12.2744,93.595 12.7744,91.095 13,88.5C 14.4813,87.5291 15.3146,86.1958 15.5,84.5C 17.1652,82.2032 19.4985,80.8699 22.5,80.5C 24.5342,78.4011 24.8676,76.0677 23.5,73.5C 20.2993,75.2622 17.2993,77.2622 14.5,79.5C 9.95941,82.3701 6.95941,86.3701 5.5,91.5C 5.44805,89.0971 5.78138,86.7638 6.5,84.5C 6.5,83.8333 6.5,83.1667 6.5,82.5C 7.16667,82.5 7.5,82.1667 7.5,81.5C 10.1788,79.4149 12.8455,77.4149 15.5,75.5C 18.5459,73.7084 21.8793,72.7084 25.5,72.5C 25.5,75.5 25.5,78.5 25.5,81.5 Z"/></g>
<g><path style="opacity:1" fill="#8674f8" d="M 15.5,84.5 C 14.9522,82.85 14.6189,81.1834 14.5,79.5C 17.2993,77.2622 20.2993,75.2622 23.5,73.5C 24.8676,76.0677 24.5342,78.4011 22.5,80.5C 19.4985,80.8699 17.1652,82.2032 15.5,84.5 Z"/></g>
<g><path style="opacity:1" fill="#ae68fd" d="M 95.5,75.5 C 95.5,85.8333 95.5,96.1667 95.5,106.5C 90.9188,106.652 89.9188,105.152 92.5,102C 90.7649,100.818 89.7649,99.1515 89.5,97C 90.6927,93.9862 91.3593,90.8195 91.5,87.5C 91.332,83.4752 90.9987,79.4752 90.5,75.5C 92.1667,75.5 93.8333,75.5 95.5,75.5 Z"/></g>
<g><path style="opacity:1" fill="#464a88" d="M 6.5,84.5 C 5.78138,86.7638 5.44805,89.0971 5.5,91.5C 4.06193,95.5749 4.39527,99.5749 6.5,103.5C 5.5,102.833 4.5,102.167 3.5,101.5C 3.33432,97.1539 3.50098,92.8206 4,88.5C 4.20041,86.6803 5.03374,85.347 6.5,84.5 Z"/></g>
<g><path style="opacity:1" fill="#1f1e2b" d="M 68.5,77.5 C 69.1834,79.1765 70.5168,79.8432 72.5,79.5C 72.6495,80.552 72.4828,81.552 72,82.5C 70.4878,83.2567 69.1545,84.2567 68,85.5C 67.1725,89.8713 67.3391,94.2047 68.5,98.5C 71.3205,97.3504 71.6538,96.1838 69.5,95C 71.2295,91.272 73.2295,87.772 75.5,84.5C 74.9861,86.6175 74.6527,88.7841 74.5,91C 74.5687,92.9855 75.2353,94.4855 76.5,95.5C 76.5,95.8333 76.5,96.1667 76.5,96.5C 76.5,97.8333 76.5,99.1667 76.5,100.5C 74.6923,99.6832 73.1923,100.35 72,102.5C 71.5065,104.134 71.3398,105.801 71.5,107.5C 70.6862,105.369 70.1862,103.036 70,100.5C 69.3292,101.252 68.4959,101.586 67.5,101.5C 66.6618,101.158 66.3284,100.492 66.5,99.5C 66.0944,91.9213 66.7611,84.588 68.5,77.5 Z"/></g>
<g><path style="opacity:1" fill="#221e27" d="M 88.5,61.5 C 93.1785,61.3342 97.8452,61.5008 102.5,62C 104.516,62.8995 106.183,64.2328 107.5,66C 108.793,66.49 110.127,66.6567 111.5,66.5C 113.456,67.4918 115.456,68.4918 117.5,69.5C 119.238,71.9214 120.571,74.5881 121.5,77.5C 119.5,78.1667 117.5,78.8333 115.5,79.5C 115.298,81.9892 115.798,84.3225 117,86.5C 119,87.8333 120.667,89.5 122,91.5C 123.424,87.7032 123.924,83.7032 123.5,79.5C 123.833,79.5 124.167,79.5 124.5,79.5C 124.823,86.0221 124.49,92.3554 123.5,98.5C 123.5,97.5 123.5,96.5 123.5,95.5C 122.5,95.5 121.5,95.5 120.5,95.5C 120.67,96.8221 120.337,97.9887 119.5,99C 118.041,98.6446 116.707,98.8112 115.5,99.5C 115.5,98.1667 115.5,96.8333 115.5,95.5C 115.813,91.9581 115.479,88.6248 114.5,85.5C 114.614,82.784 113.614,80.784 111.5,79.5C 111.719,78.325 111.386,77.325 110.5,76.5C 104.583,71.1741 97.9167,69.5075 90.5,71.5C 85.7143,72.6179 82.0476,75.2845 79.5,79.5C 79.1667,79.5 78.8333,79.5 78.5,79.5C 77.8333,79.5 77.1667,79.5 76.5,79.5C 76.5,78.5 76.5,77.5 76.5,76.5C 74.1667,76.5 71.8333,76.5 69.5,76.5C 71.3897,73.3456 73.723,70.6789 76.5,68.5C 76.1231,70.258 75.4565,71.9246 74.5,73.5C 74.8333,73.8333 75.1667,74.1667 75.5,74.5C 78.2186,72.1437 81.2186,70.3104 84.5,69C 89.1964,69.4412 93.8631,69.2745 98.5,68.5C 97.9648,65.7615 98.9648,63.9282 101.5,63C 98.1667,62.3333 94.8333,62.3333 91.5,63C 87.6171,64.4788 83.6171,65.6455 79.5,66.5C 79.5,65.8333 79.5,65.1667 79.5,64.5C 79.5,64.1667 79.5,63.8333 79.5,63.5C 79.8333,63.5 80.1667,63.5 80.5,63.5C 83.4509,63.7128 86.1175,63.0461 88.5,61.5 Z"/></g>
<g><path style="opacity:1" fill="#3a1a4f" d="M 90.5,71.5 C 97.9167,69.5075 104.583,71.1741 110.5,76.5C 111.386,77.325 111.719,78.325 111.5,79.5C 109.365,77.5734 107.031,75.9067 104.5,74.5C 102.786,73.2616 100.786,72.595 98.5,72.5C 96.0521,71.5269 93.3854,71.1936 90.5,71.5 Z"/></g>
<g><path style="opacity:1" fill="#61488f" d="M 90.5,71.5 C 93.3854,71.1936 96.0521,71.5269 98.5,72.5C 91.1504,72.281 84.8171,74.6143 79.5,79.5C 82.0476,75.2845 85.7143,72.6179 90.5,71.5 Z"/></g>
<g><path style="opacity:1" fill="#381443" d="M 124.5,79.5 C 124.833,79.5 125.167,79.5 125.5,79.5C 125.5,80.1667 125.5,80.8333 125.5,81.5C 127.701,91.1262 126.367,100.126 121.5,108.5C 120.728,109.694 119.728,110.694 118.5,111.5C 119.292,107.922 120.625,104.588 122.5,101.5C 123.404,100.791 123.737,99.791 123.5,98.5C 124.49,92.3554 124.823,86.0221 124.5,79.5 Z"/></g>
<g><path style="opacity:1" fill="#351440" d="M 163.5,70.5 C 163.335,74.1817 163.501,77.8484 164,81.5C 164.671,82.2524 165.504,82.5858 166.5,82.5C 168.972,83.9089 171.305,85.5756 173.5,87.5C 173.5,87.8333 173.5,88.1667 173.5,88.5C 175.168,90.4786 175.834,92.812 175.5,95.5C 175.5,96.1667 175.5,96.8333 175.5,97.5C 174.527,99.1392 173.194,100.473 171.5,101.5C 174.372,93.9544 172.372,88.2877 165.5,84.5C 164.828,83.7326 163.995,83.0659 163,82.5C 162.188,78.3112 162.355,74.3112 163.5,70.5 Z"/></g>
<g><path style="opacity:1" fill="#ec57f7" d="M 180.5,83.5 C 182.626,86.439 183.626,89.7723 183.5,93.5C 183.083,97.6605 182.083,101.661 180.5,105.5C 178.801,105.62 177.135,105.954 175.5,106.5C 174.287,106.253 173.62,105.586 173.5,104.5C 173.5,103.833 173.5,103.167 173.5,102.5C 174.942,101.18 175.608,99.5138 175.5,97.5C 175.5,96.8333 175.5,96.1667 175.5,95.5C 176.693,95.0296 177.36,94.0296 177.5,92.5C 177.469,89.8245 176.136,88.4912 173.5,88.5C 173.5,88.1667 173.5,87.8333 173.5,87.5C 173.461,86.4168 173.127,85.4168 172.5,84.5C 168.185,82.6562 166.185,79.3229 166.5,74.5C 168.199,74.3398 169.866,74.5065 171.5,75C 173.48,77.1644 175.813,78.6644 178.5,79.5C 178.229,81.3797 178.896,82.713 180.5,83.5 Z"/></g>
<g><path style="opacity:1" fill="#8276f5" d="M 83.5,79.5 C 83.4136,85.4291 84.4136,91.0958 86.5,96.5C 84.2322,98.9102 83.8989,101.577 85.5,104.5C 83.7837,102.975 81.7837,101.975 79.5,101.5C 79.5,101.167 79.5,100.833 79.5,100.5C 77.8492,95.6716 77.1825,90.6716 77.5,85.5C 77.8333,85.5 78.1667,85.5 78.5,85.5C 81.5499,86.8145 82.2166,85.8145 80.5,82.5C 80.8793,80.7869 81.8793,79.7869 83.5,79.5 Z"/></g>
<g><path style="opacity:1" fill="#a058b5" d="M 125.5,81.5 C 126.117,81.6107 126.617,81.944 127,82.5C 127.499,86.8206 127.666,91.1539 127.5,95.5C 127.5,96.8333 127.5,98.1667 127.5,99.5C 125.299,103.114 123.966,107.114 123.5,111.5C 121.952,111.179 121.285,110.179 121.5,108.5C 126.367,100.126 127.701,91.1262 125.5,81.5 Z"/></g>
<g><path style="opacity:1" fill="#1e2024" d="M 29.5,95.5 C 29.0254,98.0821 29.6921,100.082 31.5,101.5C 31.5,101.833 31.5,102.167 31.5,102.5C 31.5,103.5 31.5,104.5 31.5,105.5C 27.4239,103.491 23.0906,101.824 18.5,100.5C 18.4139,98.323 17.7472,96.323 16.5,94.5C 18.3402,90.8532 21.0068,87.8532 24.5,85.5C 26.0443,85.2969 27.3777,84.6302 28.5,83.5C 29.4909,87.4454 29.8242,91.4454 29.5,95.5 Z"/></g>
<g><path style="opacity:1" fill="#531d5c" d="M 112.5,97.5 C 112.833,97.5 113.167,97.5 113.5,97.5C 113.6,100.108 112.933,102.442 111.5,104.5C 109.938,104.733 108.605,105.4 107.5,106.5C 108.075,104.589 109.075,102.922 110.5,101.5C 111.345,100.329 112.011,98.9952 112.5,97.5 Z"/></g>
<g><path style="opacity:1" fill="#301835" d="M 115.5,95.5 C 115.5,96.8333 115.5,98.1667 115.5,99.5C 115.5,99.8333 115.5,100.167 115.5,100.5C 114.607,102.297 113.274,103.63 111.5,104.5C 112.933,102.442 113.6,100.108 113.5,97.5C 114.167,96.8333 114.833,96.1667 115.5,95.5 Z"/></g>
<g><path style="opacity:1" fill="#786ec0" d="M 79.5,101.5 C 81.7837,101.975 83.7837,102.975 85.5,104.5C 85.5,104.833 85.5,105.167 85.5,105.5C 85.8333,106.167 86.1667,106.833 86.5,107.5C 85.8333,107.5 85.1667,107.5 84.5,107.5C 82.8333,105.5 81.1667,103.5 79.5,101.5 Z"/></g>
<g><path style="opacity:1" fill="#7172cb" d="M 5.5,91.5 C 4.86197,96.5292 6.1953,100.863 9.5,104.5C 11.7053,106.363 13.0387,108.697 13.5,111.5C 13.1667,111.5 12.8333,111.5 12.5,111.5C 11.5806,108.911 9.91395,106.911 7.5,105.5C 6.66175,105.158 6.32842,104.492 6.5,103.5C 4.39527,99.5749 4.06193,95.5749 5.5,91.5 Z"/></g>
<g><path style="opacity:1" fill="#7d69ba" d="M 63.5,95.5 C 64.3403,100.348 66.3403,104.681 69.5,108.5C 70.1408,109.482 70.8075,110.482 71.5,111.5C 68.6908,112.8 66.0241,112.8 63.5,111.5C 64.8333,111.5 66.1667,111.5 67.5,111.5C 67.313,109.436 66.813,107.436 66,105.5C 65.3292,104.748 64.4959,104.414 63.5,104.5C 63.5,101.5 63.5,98.5 63.5,95.5 Z"/></g>
<g><path style="opacity:1" fill="#b35bbd" d="M 175.5,97.5 C 175.608,99.5138 174.942,101.18 173.5,102.5C 171.784,104.025 169.784,105.025 167.5,105.5C 168.833,104.167 170.167,102.833 171.5,101.5C 173.194,100.473 174.527,99.1392 175.5,97.5 Z"/></g>
<g><path style="opacity:1" fill="#48184d" d="M 181.5,79.5 C 182.675,79.281 183.675,79.6143 184.5,80.5C 185.035,82.261 186.035,83.5943 187.5,84.5C 188.612,89.8381 188.612,95.1715 187.5,100.5C 185.057,104.411 182.39,108.078 179.5,111.5C 178.833,111.5 178.167,111.5 177.5,111.5C 181.445,107.942 184.111,103.609 185.5,98.5C 186.643,95.0242 186.81,91.3575 186,87.5C 185.623,86.0577 184.79,85.0577 183.5,84.5C 183.107,82.7162 182.441,81.0495 181.5,79.5 Z"/></g>
<g><path style="opacity:1" fill="#1f2351" d="M 31.5,102.5 C 35.906,104.516 40.2393,106.516 44.5,108.5C 40.2819,107.323 35.9486,106.323 31.5,105.5C 31.5,104.5 31.5,103.5 31.5,102.5 Z"/></g>
<g><path style="opacity:1" fill="#8a73f5" d="M 60.5,81.5 C 61.209,82.404 62.209,82.7373 63.5,82.5C 63.5,83.5 63.5,84.5 63.5,85.5C 63.5,88.8333 63.5,92.1667 63.5,95.5C 63.5,98.5 63.5,101.5 63.5,104.5C 64.2341,105.708 64.5674,107.041 64.5,108.5C 58.8552,107.866 53.1886,107.532 47.5,107.5C 47.8102,105.856 48.8102,104.856 50.5,104.5C 52.1238,104.36 53.2904,105.027 54,106.5C 55.4653,104.085 57.632,103.085 60.5,103.5C 60.756,101.088 59.756,99.4209 57.5,98.5C 58.7394,96.6885 59.4061,94.6885 59.5,92.5C 58.5855,89.0265 58.2521,85.6931 58.5,82.5C 58.9569,81.7025 59.6236,81.3691 60.5,81.5 Z"/></g>
<g><path style="opacity:1" fill="#d763dd" d="M 145.5,104.5 C 147.833,104.5 150.167,104.5 152.5,104.5C 149.785,106.072 146.785,107.072 143.5,107.5C 143.285,105.821 143.952,104.821 145.5,104.5 Z"/></g>
<g><path style="opacity:1" fill="#423679" d="M 22.5,104.5 C 24.0269,104.427 25.0269,105.094 25.5,106.5C 24.8333,106.5 24.1667,106.5 23.5,106.5C 23.1667,105.833 22.8333,105.167 22.5,104.5 Z"/></g>
<g><path style="opacity:1" fill="#1c2121" d="M 123.5,98.5 C 123.737,99.791 123.404,100.791 122.5,101.5C 120.45,103.237 118.617,105.237 117,107.5C 115.933,106.809 114.766,106.309 113.5,106C 114.861,104.416 115.528,102.582 115.5,100.5C 115.5,100.167 115.5,99.8333 115.5,99.5C 116.707,98.8112 118.041,98.6446 119.5,99C 120.337,97.9887 120.67,96.8221 120.5,95.5C 121.5,95.5 122.5,95.5 123.5,95.5C 123.5,96.5 123.5,97.5 123.5,98.5 Z"/></g>
<g><path style="opacity:1" fill="#40407c" d="M 7.5,105.5 C 9.91395,106.911 11.5806,108.911 12.5,111.5C 10.086,110.089 8.41938,108.089 7.5,105.5 Z"/></g>
<g><path style="opacity:1" fill="#8875f5" d="M 14.5,102.5 C 15.5,102.5 16.5,102.5 17.5,102.5C 17.5,103.5 17.5,104.5 17.5,105.5C 19.5648,105.517 21.5648,105.85 23.5,106.5C 24.1667,106.5 24.8333,106.5 25.5,106.5C 25.8417,107.338 26.5084,107.672 27.5,107.5C 28.1667,108.167 28.8333,108.833 29.5,109.5C 32.3075,110.879 34.9741,112.546 37.5,114.5C 35.2075,114.756 33.0408,114.423 31,113.5C 27.6433,114.742 27.81,115.576 31.5,116C 30.8333,116.333 30.1667,116.667 29.5,117C 30.4158,117.278 31.0825,117.778 31.5,118.5C 26.3665,115.786 21.0332,113.453 15.5,111.5C 14.8333,111.5 14.1667,111.5 13.5,111.5C 13.0387,108.697 11.7053,106.363 9.5,104.5C 9.64271,102.738 9.30937,101.071 8.5,99.5C 9,99.1667 9.5,98.8333 10,98.5C 11.3506,100.018 12.8506,101.351 14.5,102.5 Z"/></g>
<g><path style="opacity:1" fill="#8b75e8" d="M 63.5,104.5 C 64.4959,104.414 65.3292,104.748 66,105.5C 66.813,107.436 67.313,109.436 67.5,111.5C 66.1667,111.5 64.8333,111.5 63.5,111.5C 62.8478,110.275 61.6811,109.608 60,109.5C 55.8633,108.763 51.6966,108.429 47.5,108.5C 47.5,108.167 47.5,107.833 47.5,107.5C 53.1886,107.532 58.8552,107.866 64.5,108.5C 64.5674,107.041 64.2341,105.708 63.5,104.5 Z"/></g>
<g><path style="opacity:1" fill="#1f2022" d="M 76.5,100.5 C 77.3385,102.781 78.3385,105.115 79.5,107.5C 81.955,108.355 84.2883,109.355 86.5,110.5C 85.2825,111.161 83.9492,111.828 82.5,112.5C 83.5896,113.609 83.5896,114.609 82.5,115.5C 80.2324,116.544 77.8991,116.711 75.5,116C 75.8333,115.667 76.1667,115.333 76.5,115C 75.8095,113.933 75.3095,112.766 75,111.5C 74.5831,110.244 73.7498,109.577 72.5,109.5C 71.6618,109.158 71.3284,108.492 71.5,107.5C 71.3398,105.801 71.5065,104.134 72,102.5C 73.1923,100.35 74.6923,99.6832 76.5,100.5 Z"/></g>
<g><path style="opacity:1" fill="#21203e" d="M 76.5,96.5 C 77.5,97.8333 78.5,99.1667 79.5,100.5C 79.5,100.833 79.5,101.167 79.5,101.5C 81.1667,103.5 82.8333,105.5 84.5,107.5C 86.1667,108.833 87.8333,110.167 89.5,111.5C 88.391,111.443 87.391,111.11 86.5,110.5C 84.2883,109.355 81.955,108.355 79.5,107.5C 78.3385,105.115 77.3385,102.781 76.5,100.5C 76.5,99.1667 76.5,97.8333 76.5,96.5 Z"/></g>
<g><path style="opacity:1" fill="#ad6ddc" d="M 110.5,101.5 C 109.075,102.922 108.075,104.589 107.5,106.5C 106.167,106.833 104.833,107.167 103.5,107.5C 98.8696,108.229 94.2029,108.563 89.5,108.5C 88.391,108.443 87.391,108.11 86.5,107.5C 86.1667,106.833 85.8333,106.167 85.5,105.5C 87.9564,106.262 90.4564,106.929 93,107.5C 94.0698,107.472 94.9032,107.139 95.5,106.5C 97.1667,106.5 98.8333,106.5 100.5,106.5C 102.099,106.768 103.432,106.434 104.5,105.5C 106.115,103.626 108.115,102.292 110.5,101.5 Z"/></g>
<g><path style="opacity:1" fill="#db5feb" d="M 180.5,83.5 C 181.391,84.1098 182.391,84.4431 183.5,84.5C 184.811,89.0611 185.478,93.7277 185.5,98.5C 184.111,103.609 181.445,107.942 177.5,111.5C 176.508,111.328 175.842,111.662 175.5,112.5C 173.062,114.267 170.395,115.601 167.5,116.5C 164.833,117.167 162.167,117.833 159.5,118.5C 159.5,118.167 159.5,117.833 159.5,117.5C 159.351,116.448 159.517,115.448 160,114.5C 162.737,115.61 165.571,115.777 168.5,115C 169.506,112.153 170.506,109.319 171.5,106.5C 171.833,105.5 172.5,104.833 173.5,104.5C 173.62,105.586 174.287,106.253 175.5,106.5C 177.135,105.954 178.801,105.62 180.5,105.5C 182.083,101.661 183.083,97.6605 183.5,93.5C 183.626,89.7723 182.626,86.439 180.5,83.5 Z"/></g>
<g><path style="opacity:1" fill="#776ac2" d="M 47.5,108.5 C 51.6966,108.429 55.8633,108.763 60,109.5C 61.6811,109.608 62.8478,110.275 63.5,111.5C 62.5,111.5 61.5,111.5 60.5,111.5C 56.2144,110.257 51.8811,109.257 47.5,108.5 Z"/></g>
<g><path style="opacity:1" fill="#271e3f" d="M 71.5,107.5 C 71.3284,108.492 71.6618,109.158 72.5,109.5C 72.5,110.833 72.5,112.167 72.5,113.5C 68.1667,113.5 63.8333,113.5 59.5,113.5C 57.847,113.34 56.5137,112.674 55.5,111.5C 57.1667,111.5 58.8333,111.5 60.5,111.5C 61.5,111.5 62.5,111.5 63.5,111.5C 66.0241,112.8 68.6908,112.8 71.5,111.5C 70.8075,110.482 70.1408,109.482 69.5,108.5C 69.1218,106.079 68.4552,103.746 67.5,101.5C 68.4959,101.586 69.3292,101.252 70,100.5C 70.1862,103.036 70.6862,105.369 71.5,107.5 Z"/></g>
<g><path style="opacity:1" fill="#cc63ef" d="M 127.5,99.5 C 127.183,102.572 127.516,105.572 128.5,108.5C 130.747,107.626 133.08,107.292 135.5,107.5C 132.555,108.466 129.888,109.8 127.5,111.5C 126.5,111.5 125.5,111.5 124.5,111.5C 124.167,111.5 123.833,111.5 123.5,111.5C 123.966,107.114 125.299,103.114 127.5,99.5 Z"/></g>
<g><path style="opacity:1" fill="#31173b" d="M 171.5,101.5 C 170.167,102.833 168.833,104.167 167.5,105.5C 166.833,105.833 166.167,106.167 165.5,106.5C 163.181,106.992 161.181,107.992 159.5,109.5C 157.847,109.66 156.514,110.326 155.5,111.5C 152.402,111.756 149.402,112.422 146.5,113.5C 147.007,112.141 148.007,111.141 149.5,110.5C 148.833,110.167 148.167,109.833 147.5,109.5C 144.218,110.488 140.885,111.154 137.5,111.5C 139.371,110.203 141.371,109.203 143.5,108.5C 148.882,107.373 154.216,106.039 159.5,104.5C 161.33,107.03 162.996,106.697 164.5,103.5C 166.588,102.061 168.921,101.394 171.5,101.5 Z"/></g>
<g><path style="opacity:1" fill="#9e56b5" d="M 165.5,106.5 C 164.313,108.975 162.313,109.975 159.5,109.5C 161.181,107.992 163.181,106.992 165.5,106.5 Z"/></g>
<g><path style="opacity:1" fill="#241d27" d="M 187.5,84.5 C 188.222,84.9175 188.722,85.5842 189,86.5C 188.959,91.7255 189.792,96.7255 191.5,101.5C 189.611,102.604 187.945,103.937 186.5,105.5C 187.309,107.071 187.643,108.738 187.5,110.5C 185.738,110.357 184.071,110.691 182.5,111.5C 182.421,115.524 180.088,117.191 175.5,116.5C 173.973,116.427 172.973,117.094 172.5,118.5C 170.958,119.301 169.292,119.634 167.5,119.5C 169.728,118.623 171.728,117.29 173.5,115.5C 176.878,116.109 178.878,114.776 179.5,111.5C 182.39,108.078 185.057,104.411 187.5,100.5C 188.612,95.1715 188.612,89.8381 187.5,84.5 Z"/></g>
<g><path style="opacity:1" fill="#2d1d4c" d="M 27.5,107.5 C 36.9346,109.572 46.2679,112.072 55.5,115C 56.056,115.383 56.3893,115.883 56.5,116.5C 47.3825,114.637 38.3825,112.304 29.5,109.5C 28.8333,108.833 28.1667,108.167 27.5,107.5 Z"/></g>
<g><path style="opacity:1" fill="#272453" d="M 44.5,108.5 C 45.5,108.5 46.5,108.5 47.5,108.5C 51.8811,109.257 56.2144,110.257 60.5,111.5C 58.8333,111.5 57.1667,111.5 55.5,111.5C 51.4296,111.568 47.763,110.568 44.5,108.5 Z"/></g>
<g><path style="opacity:1" fill="#bf64d5" d="M 135.5,107.5 C 138.167,107.5 140.833,107.5 143.5,107.5C 143.5,107.833 143.5,108.167 143.5,108.5C 138.64,109.133 133.973,110.133 129.5,111.5C 128.833,111.5 128.167,111.5 127.5,111.5C 129.888,109.8 132.555,108.466 135.5,107.5 Z"/></g>
<g><path style="opacity:1" fill="#c767e8" d="M 173.5,102.5 C 173.5,103.167 173.5,103.833 173.5,104.5C 172.5,104.833 171.833,105.5 171.5,106.5C 168.401,106.092 166.067,107.259 164.5,110C 161.469,110.444 158.802,111.611 156.5,113.5C 155.833,113.5 155.167,113.5 154.5,113.5C 154.833,112.833 155.167,112.167 155.5,111.5C 156.514,110.326 157.847,109.66 159.5,109.5C 162.313,109.975 164.313,108.975 165.5,106.5C 166.167,106.167 166.833,105.833 167.5,105.5C 169.784,105.025 171.784,104.025 173.5,102.5 Z"/></g>
<g><path style="opacity:1" fill="#201d33" d="M 18.5,100.5 C 23.0906,101.824 27.4239,103.491 31.5,105.5C 35.9486,106.323 40.2819,107.323 44.5,108.5C 47.763,110.568 51.4296,111.568 55.5,111.5C 56.5137,112.674 57.847,113.34 59.5,113.5C 60.4475,114.978 61.7809,115.978 63.5,116.5C 61.5,116.5 59.5,116.5 57.5,116.5C 57.1667,116.5 56.8333,116.5 56.5,116.5C 56.3893,115.883 56.056,115.383 55.5,115C 46.2679,112.072 36.9346,109.572 27.5,107.5C 26.5084,107.672 25.8417,107.338 25.5,106.5C 25.0269,105.094 24.0269,104.427 22.5,104.5C 20.672,103.717 19.3387,102.384 18.5,100.5 Z"/></g>
<g><path style="opacity:1" fill="#361d52" d="M 107.5,106.5 C 106.093,108.614 104.093,110.114 101.5,111C 97.5138,111.499 93.5138,111.666 89.5,111.5C 87.8333,110.167 86.1667,108.833 84.5,107.5C 85.1667,107.5 85.8333,107.5 86.5,107.5C 87.391,108.11 88.391,108.443 89.5,108.5C 91.3035,109.162 93.3035,109.495 95.5,109.5C 98.5267,109.713 101.193,109.047 103.5,107.5C 104.833,107.167 106.167,106.833 107.5,106.5 Z"/></g>
<g><path style="opacity:1" fill="#9f6ec7" d="M 103.5,107.5 C 101.193,109.047 98.5267,109.713 95.5,109.5C 93.3035,109.495 91.3035,109.162 89.5,108.5C 94.2029,108.563 98.8696,108.229 103.5,107.5 Z"/></g>
<g><path style="opacity:1" fill="#571c68" d="M 143.5,108.5 C 141.371,109.203 139.371,110.203 137.5,111.5C 137.167,111.5 136.833,111.5 136.5,111.5C 134.167,111.5 131.833,111.5 129.5,111.5C 133.973,110.133 138.64,109.133 143.5,108.5 Z"/></g>
<g><path style="opacity:1" fill="#835e98" d="M 121.5,108.5 C 121.285,110.179 121.952,111.179 123.5,111.5C 123.833,111.5 124.167,111.5 124.5,111.5C 122.735,112.461 120.735,112.795 118.5,112.5C 118.5,112.167 118.5,111.833 118.5,111.5C 119.728,110.694 120.728,109.694 121.5,108.5 Z"/></g>
<g><path style="opacity:1" fill="#201f3a" d="M 3.5,101.5 C 4.5,102.167 5.5,102.833 6.5,103.5C 6.32842,104.492 6.66175,105.158 7.5,105.5C 8.41938,108.089 10.086,110.089 12.5,111.5C 12.8333,111.5 13.1667,111.5 13.5,111.5C 14.1667,111.5 14.8333,111.5 15.5,111.5C 15.5,112.167 15.5,112.833 15.5,113.5C 15.5,114.167 15.5,114.833 15.5,115.5C 14.0783,115.291 12.745,114.791 11.5,114C 10.3589,111.692 8.69221,109.859 6.5,108.5C 4.14591,106.754 3.14591,104.421 3.5,101.5 Z"/></g>
<g><path style="opacity:1" fill="#221b2e" d="M 146.5,113.5 C 145.5,113.5 144.5,113.5 143.5,113.5C 140.612,114.01 138.279,113.344 136.5,111.5C 136.833,111.5 137.167,111.5 137.5,111.5C 140.885,111.154 144.218,110.488 147.5,109.5C 148.167,109.833 148.833,110.167 149.5,110.5C 148.007,111.141 147.007,112.141 146.5,113.5 Z"/></g>
<g><path style="opacity:1" fill="#221d28" d="M 115.5,100.5 C 115.528,102.582 114.861,104.416 113.5,106C 114.766,106.309 115.933,106.809 117,107.5C 118.617,105.237 120.45,103.237 122.5,101.5C 120.625,104.588 119.292,107.922 118.5,111.5C 117.624,111.369 116.957,111.702 116.5,112.5C 117.456,114.075 118.123,115.742 118.5,117.5C 116.167,117.5 113.833,117.5 111.5,117.5C 117.668,116.732 118.002,114.899 112.5,112C 110.5,111.333 108.5,111.333 106.5,112C 107.5,112.833 108.5,113.667 109.5,114.5C 108.975,115.192 108.308,115.692 107.5,116C 104.492,115.868 101.492,115.368 98.5,114.5C 97.1667,114.667 95.8333,114.833 94.5,115C 93.7476,115.671 93.4142,116.504 93.5,117.5C 90.997,115.396 88.3303,115.063 85.5,116.5C 78.2397,117.301 70.9063,117.301 63.5,116.5C 61.7809,115.978 60.4475,114.978 59.5,113.5C 63.8333,113.5 68.1667,113.5 72.5,113.5C 72.5,112.167 72.5,110.833 72.5,109.5C 73.7498,109.577 74.5831,110.244 75,111.5C 75.3095,112.766 75.8095,113.933 76.5,115C 76.1667,115.333 75.8333,115.667 75.5,116C 77.8991,116.711 80.2324,116.544 82.5,115.5C 83.5896,114.609 83.5896,113.609 82.5,112.5C 83.9492,111.828 85.2825,111.161 86.5,110.5C 87.391,111.11 88.391,111.443 89.5,111.5C 93.5138,111.666 97.5138,111.499 101.5,111C 104.093,110.114 106.093,108.614 107.5,106.5C 108.605,105.4 109.938,104.733 111.5,104.5C 113.274,103.63 114.607,102.297 115.5,100.5 Z"/></g>
<g><path style="opacity:1" fill="#9b61c6" d="M 155.5,111.5 C 155.167,112.167 154.833,112.833 154.5,113.5C 152.194,113.993 149.861,114.326 147.5,114.5C 146.167,114.5 144.833,114.5 143.5,114.5C 143.5,114.167 143.5,113.833 143.5,113.5C 144.5,113.5 145.5,113.5 146.5,113.5C 149.402,112.422 152.402,111.756 155.5,111.5 Z"/></g>
<g><path style="opacity:1" fill="#311837" d="M 177.5,111.5 C 178.167,111.5 178.833,111.5 179.5,111.5C 178.878,114.776 176.878,116.109 173.5,115.5C 174.551,114.778 175.218,113.778 175.5,112.5C 175.842,111.662 176.508,111.328 177.5,111.5 Z"/></g>
<g><path style="opacity:1" fill="#9e66d2" d="M 29.5,109.5 C 38.3825,112.304 47.3825,114.637 56.5,116.5C 56.8333,116.5 57.1667,116.5 57.5,116.5C 59.2646,117.461 61.2646,117.795 63.5,117.5C 70.588,119.239 77.9213,119.906 85.5,119.5C 83.7354,120.461 81.7354,120.795 79.5,120.5C 71.4827,120.499 63.4827,120.166 55.5,119.5C 54.8333,119.5 54.1667,119.5 53.5,119.5C 48.4146,117.34 43.0812,115.673 37.5,114.5C 34.9741,112.546 32.3075,110.879 29.5,109.5 Z"/></g>
<g><path style="opacity:1" fill="#1d2120" d="M 111.5,117.5 C 109.735,118.461 107.735,118.795 105.5,118.5C 104.414,118.62 103.747,119.287 103.5,120.5C 104.046,122.135 104.38,123.801 104.5,125.5C 103.041,125.567 101.708,125.234 100.5,124.5C 100.28,121.487 98.9471,119.153 96.5,117.5C 95.8165,117.863 95.1499,118.196 94.5,118.5C 93.8333,118.5 93.5,118.167 93.5,117.5C 93.4142,116.504 93.7476,115.671 94.5,115C 95.8333,114.833 97.1667,114.667 98.5,114.5C 101.492,115.368 104.492,115.868 107.5,116C 108.308,115.692 108.975,115.192 109.5,114.5C 108.5,113.667 107.5,112.833 106.5,112C 108.5,111.333 110.5,111.333 112.5,112C 118.002,114.899 117.668,116.732 111.5,117.5 Z"/></g>
<g><path style="opacity:1" fill="#d05dfb" d="M 171.5,106.5 C 170.506,109.319 169.506,112.153 168.5,115C 165.571,115.777 162.737,115.61 160,114.5C 159.517,115.448 159.351,116.448 159.5,117.5C 156.813,117.664 154.146,117.497 151.5,117C 153.431,116.098 155.097,114.931 156.5,113.5C 158.802,111.611 161.469,110.444 164.5,110C 166.067,107.259 168.401,106.092 171.5,106.5 Z"/></g>
<g><path style="opacity:1" fill="#27204b" d="M 15.5,113.5 C 17.9324,114.75 20.2657,116.25 22.5,118C 25.5214,118.849 28.5214,119.683 31.5,120.5C 31.5,120.833 31.5,121.167 31.5,121.5C 26.9929,121.553 22.9929,120.22 19.5,117.5C 18.0048,117.011 16.6715,116.345 15.5,115.5C 15.5,114.833 15.5,114.167 15.5,113.5 Z"/></g>
<g><path style="opacity:1" fill="#4a1c50" d="M 93.5,117.5 C 93.5,118.167 93.8333,118.5 94.5,118.5C 97.2589,118.933 98.5922,120.6 98.5,123.5C 97.391,123.443 96.391,123.11 95.5,122.5C 93.1587,120.171 90.4921,118.171 87.5,116.5C 86.8165,116.863 86.1499,117.196 85.5,117.5C 85.5,117.167 85.5,116.833 85.5,116.5C 88.3303,115.063 90.997,115.396 93.5,117.5 Z"/></g>
<g><path style="opacity:1" fill="#25192f" d="M 118.5,111.5 C 118.5,111.833 118.5,112.167 118.5,112.5C 119.514,113.765 121.014,114.431 123,114.5C 126.499,113.831 129.999,113.664 133.5,114C 129.093,115.086 124.759,116.252 120.5,117.5C 119.833,117.5 119.167,117.5 118.5,117.5C 118.123,115.742 117.456,114.075 116.5,112.5C 116.957,111.702 117.624,111.369 118.5,111.5 Z"/></g>
<g><path style="opacity:1" fill="#2a183a" d="M 124.5,111.5 C 125.5,111.5 126.5,111.5 127.5,111.5C 128.167,111.5 128.833,111.5 129.5,111.5C 131.833,111.5 134.167,111.5 136.5,111.5C 138.279,113.344 140.612,114.01 143.5,113.5C 143.5,113.833 143.5,114.167 143.5,114.5C 138.04,115.508 132.707,116.508 127.5,117.5C 125.167,117.5 122.833,117.5 120.5,117.5C 124.759,116.252 129.093,115.086 133.5,114C 129.999,113.664 126.499,113.831 123,114.5C 121.014,114.431 119.514,113.765 118.5,112.5C 120.735,112.795 122.735,112.461 124.5,111.5 Z"/></g>
<g><path style="opacity:1" fill="#7955aa" d="M 143.5,114.5 C 142.848,115.725 141.681,116.392 140,116.5C 135.863,117.41 131.696,118.077 127.5,118.5C 127.5,118.167 127.5,117.833 127.5,117.5C 132.707,116.508 138.04,115.508 143.5,114.5 Z"/></g>
<g><path style="opacity:1" fill="#a36bfa" d="M 37.5,114.5 C 43.0812,115.673 48.4146,117.34 53.5,119.5C 51.6208,120.341 49.6208,120.675 47.5,120.5C 47.5,121.5 47.5,122.5 47.5,123.5C 44.4842,123.159 41.8175,121.993 39.5,120C 36.854,119.503 34.1873,119.336 31.5,119.5C 31.5,119.167 31.5,118.833 31.5,118.5C 31.0825,117.778 30.4158,117.278 29.5,117C 30.1667,116.667 30.8333,116.333 31.5,116C 27.81,115.576 27.6433,114.742 31,113.5C 33.0408,114.423 35.2075,114.756 37.5,114.5 Z"/></g>
<g><path style="opacity:1" fill="#4b1e5f" d="M 63.5,117.5 C 70.8174,118.118 78.1507,118.451 85.5,118.5C 85.5,118.833 85.5,119.167 85.5,119.5C 77.9213,119.906 70.588,119.239 63.5,117.5 Z"/></g>
<g><path style="opacity:1" fill="#2e153a" d="M 57.5,116.5 C 59.5,116.5 61.5,116.5 63.5,116.5C 70.9063,117.301 78.2397,117.301 85.5,116.5C 85.5,116.833 85.5,117.167 85.5,117.5C 85.5,117.833 85.5,118.167 85.5,118.5C 78.1507,118.451 70.8174,118.118 63.5,117.5C 61.2646,117.795 59.2646,117.461 57.5,116.5 Z"/></g>
<g><path style="opacity:1" fill="#481f56" d="M 175.5,112.5 C 175.218,113.778 174.551,114.778 173.5,115.5C 171.728,117.29 169.728,118.623 167.5,119.5C 164.994,120.75 162.327,121.416 159.5,121.5C 162.167,119.833 164.833,118.167 167.5,116.5C 170.395,115.601 173.062,114.267 175.5,112.5 Z"/></g>
<g><path style="opacity:1" fill="#816fce" d="M 15.5,111.5 C 21.0332,113.453 26.3665,115.786 31.5,118.5C 31.5,118.833 31.5,119.167 31.5,119.5C 31.5,119.833 31.5,120.167 31.5,120.5C 28.5214,119.683 25.5214,118.849 22.5,118C 20.2657,116.25 17.9324,114.75 15.5,113.5C 15.5,112.833 15.5,112.167 15.5,111.5 Z"/></g>
<g><path style="opacity:1" fill="#2f2d60" d="M 111.5,117.5 C 113.833,117.5 116.167,117.5 118.5,117.5C 119.167,117.5 119.833,117.5 120.5,117.5C 122.833,117.5 125.167,117.5 127.5,117.5C 127.5,117.833 127.5,118.167 127.5,118.5C 120.95,118.454 114.617,119.121 108.5,120.5C 107.761,120.369 107.094,120.536 106.5,121C 110.782,124.307 110.448,126.807 105.5,128.5C 106.72,125.61 106.72,122.277 105.5,118.5C 107.735,118.795 109.735,118.461 111.5,117.5 Z"/></g>
<g><path style="opacity:1" fill="#bf64f8" d="M 154.5,113.5 C 155.167,113.5 155.833,113.5 156.5,113.5C 155.097,114.931 153.431,116.098 151.5,117C 154.146,117.497 156.813,117.664 159.5,117.5C 159.5,117.833 159.5,118.167 159.5,118.5C 156.146,120.258 152.479,121.258 148.5,121.5C 146.396,119.417 146.062,117.083 147.5,114.5C 149.861,114.326 152.194,113.993 154.5,113.5 Z"/></g>
<g><path style="opacity:1" fill="#1b221c" d="M 175.5,116.5 C 176.78,117.931 178.447,118.598 180.5,118.5C 180.714,120.144 180.38,121.644 179.5,123C 177.132,123.856 174.798,124.69 172.5,125.5C 173.833,123.167 173.833,120.833 172.5,118.5C 172.973,117.094 173.973,116.427 175.5,116.5 Z"/></g>
<g><path style="opacity:1" fill="#716bc0" d="M 127.5,118.5 C 127.5,118.833 127.5,119.167 127.5,119.5C 121.171,119.9 114.838,120.233 108.5,120.5C 114.617,119.121 120.95,118.454 127.5,118.5 Z"/></g>
<g><path style="opacity:1" fill="#c760d1" d="M 95.5,122.5 C 93.027,122.201 90.8603,121.201 89,119.5C 86.1143,121.225 82.9477,121.892 79.5,121.5C 79.5,121.167 79.5,120.833 79.5,120.5C 81.7354,120.795 83.7354,120.461 85.5,119.5C 85.5,119.167 85.5,118.833 85.5,118.5C 85.5,118.167 85.5,117.833 85.5,117.5C 86.1499,117.196 86.8165,116.863 87.5,116.5C 90.4921,118.171 93.1587,120.171 95.5,122.5 Z"/></g>
<g><path style="opacity:1" fill="#ab68d3" d="M 167.5,116.5 C 164.833,118.167 162.167,119.833 159.5,121.5C 155.916,121.975 152.583,122.975 149.5,124.5C 148.5,124.5 147.5,124.5 146.5,124.5C 147.551,123.778 148.218,122.778 148.5,121.5C 152.479,121.258 156.146,120.258 159.5,118.5C 162.167,117.833 164.833,117.167 167.5,116.5 Z"/></g>
<g><path style="opacity:1" fill="#3a2258" d="M 31.5,121.5 C 33.5529,121.402 35.2196,122.069 36.5,123.5C 34.2188,123.923 32.5521,123.256 31.5,121.5 Z"/></g>
<g><path style="opacity:1" fill="#b965fa" d="M 53.5,119.5 C 54.1667,119.5 54.8333,119.5 55.5,119.5C 57.5027,121.982 60.1694,122.982 63.5,122.5C 63.5,123.5 63.5,124.5 63.5,125.5C 60.8333,125.5 58.1667,125.5 55.5,125.5C 52.6697,125.037 50.003,124.371 47.5,123.5C 47.5,122.5 47.5,121.5 47.5,120.5C 49.6208,120.675 51.6208,120.341 53.5,119.5 Z"/></g>
<g><path style="opacity:1" fill="#cf60f6" d="M 55.5,119.5 C 63.4827,120.166 71.4827,120.499 79.5,120.5C 79.5,120.833 79.5,121.167 79.5,121.5C 77.5018,122.148 75.5018,122.981 73.5,124C 74.1667,125 74.8333,126 75.5,127C 80.4663,127.133 85.2996,127.967 90,129.5C 91.9386,129.046 93.772,128.379 95.5,127.5C 95.2178,128.778 94.5511,129.778 93.5,130.5C 90.8333,131.833 88.1667,131.833 85.5,130.5C 78.398,128.929 71.0647,127.262 63.5,125.5C 63.5,124.5 63.5,123.5 63.5,122.5C 60.1694,122.982 57.5027,121.982 55.5,119.5 Z"/></g>
<g><path style="opacity:1" fill="#431c52" d="M 159.5,121.5 C 159.5,122.167 159.5,122.833 159.5,123.5C 156.193,124.051 152.86,124.384 149.5,124.5C 152.583,122.975 155.916,121.975 159.5,121.5 Z"/></g>
<g><path style="opacity:1" fill="#8277f4" d="M 127.5,119.5 C 127.5,119.833 127.5,120.167 127.5,120.5C 121.86,120.181 117.527,122.348 114.5,127C 115.793,127.49 117.127,127.657 118.5,127.5C 116.393,128.468 114.059,128.802 111.5,128.5C 111.507,125.355 110.507,122.689 108.5,120.5C 114.838,120.233 121.171,119.9 127.5,119.5 Z"/></g>
<g><path style="opacity:1" fill="#a26ef6" d="M 143.5,114.5 C 144.833,114.5 146.167,114.5 147.5,114.5C 146.062,117.083 146.396,119.417 148.5,121.5C 148.218,122.778 147.551,123.778 146.5,124.5C 146.167,124.5 145.833,124.5 145.5,124.5C 142.5,124.5 139.5,124.5 136.5,124.5C 132.736,124.909 129.07,124.909 125.5,124.5C 124.833,124.167 124.167,123.833 123.5,123.5C 125.184,122.85 126.517,121.85 127.5,120.5C 127.5,120.167 127.5,119.833 127.5,119.5C 127.5,119.167 127.5,118.833 127.5,118.5C 131.696,118.077 135.863,117.41 140,116.5C 141.681,116.392 142.848,115.725 143.5,114.5 Z"/></g>
<g><path style="opacity:1" fill="#8d72f7" d="M 127.5,120.5 C 126.517,121.85 125.184,122.85 123.5,123.5C 124.167,123.833 124.833,124.167 125.5,124.5C 129.07,124.909 132.736,124.909 136.5,124.5C 133.408,125.184 130.408,126.184 127.5,127.5C 124.5,127.5 121.5,127.5 118.5,127.5C 117.127,127.657 115.793,127.49 114.5,127C 117.527,122.348 121.86,120.181 127.5,120.5 Z"/></g>
<g><path style="opacity:1" fill="#996fd9" d="M 136.5,124.5 C 139.5,124.5 142.5,124.5 145.5,124.5C 139.804,126.561 133.804,127.561 127.5,127.5C 130.408,126.184 133.408,125.184 136.5,124.5 Z"/></g>
<g><path style="opacity:1" fill="#372052" d="M 37.5,123.5 C 40.9404,124.511 44.2737,125.511 47.5,126.5C 43.5842,126.975 40.2509,125.975 37.5,123.5 Z"/></g>
<g><path style="opacity:1" fill="#9b6cd4" d="M 31.5,119.5 C 34.1873,119.336 36.854,119.503 39.5,120C 41.8175,121.993 44.4842,123.159 47.5,123.5C 50.003,124.371 52.6697,125.037 55.5,125.5C 55.8333,126.167 56.1667,126.833 56.5,127.5C 55.8333,127.5 55.1667,127.5 54.5,127.5C 52.2362,126.781 49.9029,126.448 47.5,126.5C 44.2737,125.511 40.9404,124.511 37.5,123.5C 37.1667,123.5 36.8333,123.5 36.5,123.5C 35.2196,122.069 33.5529,121.402 31.5,121.5C 31.5,121.167 31.5,120.833 31.5,120.5C 31.5,120.167 31.5,119.833 31.5,119.5 Z"/></g>
<g><path style="opacity:1" fill="#e858f8" d="M 95.5,122.5 C 95.5,124.167 95.5,125.833 95.5,127.5C 93.772,128.379 91.9386,129.046 90,129.5C 85.2996,127.967 80.4663,127.133 75.5,127C 74.8333,126 74.1667,125 73.5,124C 75.5018,122.981 77.5018,122.148 79.5,121.5C 82.9477,121.892 86.1143,121.225 89,119.5C 90.8603,121.201 93.027,122.201 95.5,122.5 Z"/></g>
<g><path style="opacity:1" fill="#c765cb" d="M 95.5,122.5 C 96.391,123.11 97.391,123.443 98.5,123.5C 99.6511,126.053 98.6511,127.386 95.5,127.5C 95.5,125.833 95.5,124.167 95.5,122.5 Z"/></g>
<g><path style="opacity:1" fill="#1f1e29" d="M 19.5,117.5 C 22.9929,120.22 26.9929,121.553 31.5,121.5C 32.5521,123.256 34.2188,123.923 36.5,123.5C 36.8333,123.5 37.1667,123.5 37.5,123.5C 40.2509,125.975 43.5842,126.975 47.5,126.5C 49.751,127.411 51.751,128.744 53.5,130.5C 48.9269,129.977 44.2603,129.977 39.5,130.5C 39.5,129.5 39.5,128.5 39.5,127.5C 37.0459,127.679 34.8792,127.013 33,125.5C 31.0027,127.379 28.836,127.712 26.5,126.5C 27.5,125.667 28.5,124.833 29.5,124C 26.7021,122.402 23.7021,121.235 20.5,120.5C 19.8728,119.583 19.5394,118.583 19.5,117.5 Z"/></g>
<g><path style="opacity:1" fill="#c168ec" d="M 55.5,125.5 C 58.1667,125.5 60.8333,125.5 63.5,125.5C 71.0647,127.262 78.398,128.929 85.5,130.5C 84.8333,130.5 84.1667,130.5 83.5,130.5C 82.1667,130.5 80.8333,130.5 79.5,130.5C 72.7858,128.418 65.7858,127.418 58.5,127.5C 57.8333,127.5 57.1667,127.5 56.5,127.5C 56.1667,126.833 55.8333,126.167 55.5,125.5 Z"/></g>
<g><path style="opacity:1" fill="#9e5bbd" d="M 58.5,127.5 C 65.7858,127.418 72.7858,128.418 79.5,130.5C 74.1463,130.431 68.813,130.098 63.5,129.5C 61.8333,128.833 60.1667,128.167 58.5,127.5 Z"/></g>
<g><path style="opacity:1" fill="#301c3f" d="M 47.5,126.5 C 49.9029,126.448 52.2362,126.781 54.5,127.5C 54.6107,128.117 54.944,128.617 55.5,129C 58.146,129.497 60.8127,129.664 63.5,129.5C 64.8333,130.167 66.1667,130.833 67.5,131.5C 62.8075,131.46 58.1408,131.127 53.5,130.5C 51.751,128.744 49.751,127.411 47.5,126.5 Z"/></g>
<g><path style="opacity:1" fill="#43215e" d="M 54.5,127.5 C 55.1667,127.5 55.8333,127.5 56.5,127.5C 57.1667,127.5 57.8333,127.5 58.5,127.5C 60.1667,128.167 61.8333,128.833 63.5,129.5C 60.8127,129.664 58.146,129.497 55.5,129C 54.944,128.617 54.6107,128.117 54.5,127.5 Z"/></g>
<g><path style="opacity:1" fill="#6d6db9" d="M 108.5,120.5 C 110.507,122.689 111.507,125.355 111.5,128.5C 111.5,128.833 111.5,129.167 111.5,129.5C 110.833,129.5 110.5,129.833 110.5,130.5C 108.833,130.5 107.167,130.5 105.5,130.5C 104.494,130.062 104.494,129.396 105.5,128.5C 110.448,126.807 110.782,124.307 106.5,121C 107.094,120.536 107.761,120.369 108.5,120.5 Z"/></g>
<g><path style="opacity:1" fill="#8175d8" d="M 118.5,127.5 C 121.5,127.5 124.5,127.5 127.5,127.5C 122.447,129.26 117.114,129.927 111.5,129.5C 111.5,129.167 111.5,128.833 111.5,128.5C 114.059,128.802 116.393,128.468 118.5,127.5 Z"/></g>
<g><path style="opacity:1" fill="#3d2b67" d="M 145.5,124.5 C 145.833,124.5 146.167,124.5 146.5,124.5C 147.5,124.5 148.5,124.5 149.5,124.5C 148.942,125.79 147.942,126.623 146.5,127C 144.19,127.497 141.857,127.663 139.5,127.5C 135.313,128.213 131.313,129.213 127.5,130.5C 125.167,130.5 122.833,130.5 120.5,130.5C 117.167,130.5 113.833,130.5 110.5,130.5C 110.5,129.833 110.833,129.5 111.5,129.5C 117.114,129.927 122.447,129.26 127.5,127.5C 133.804,127.561 139.804,126.561 145.5,124.5 Z"/></g>
<g><path style="opacity:1" fill="#231a38" d="M 139.5,127.5 C 140.602,129.092 139.935,129.925 137.5,130C 134.183,130.498 130.85,130.665 127.5,130.5C 131.313,129.213 135.313,128.213 139.5,127.5 Z"/></g>
<g><path style="opacity:1" fill="#37183b" d="M 100.5,124.5 C 100.65,128.47 98.9833,131.137 95.5,132.5C 93.7162,132.893 92.0495,133.559 90.5,134.5C 90.5,134.167 90.5,133.833 90.5,133.5C 91.6935,132.728 92.6935,131.728 93.5,130.5C 94.5511,129.778 95.2178,128.778 95.5,127.5C 98.6511,127.386 99.6511,126.053 98.5,123.5C 98.5922,120.6 97.2589,118.933 94.5,118.5C 95.1499,118.196 95.8165,117.863 96.5,117.5C 98.9471,119.153 100.28,121.487 100.5,124.5 Z"/></g>
<g><path style="opacity:1" fill="#40194c" d="M 63.5,129.5 C 68.813,130.098 74.1463,130.431 79.5,130.5C 80.8333,130.5 82.1667,130.5 83.5,130.5C 85.118,131.451 86.4513,132.784 87.5,134.5C 88.4168,133.873 89.4168,133.539 90.5,133.5C 90.5,133.833 90.5,134.167 90.5,134.5C 89.0813,135.451 87.4147,135.784 85.5,135.5C 85.4257,133.589 84.4257,132.422 82.5,132C 77.8452,131.501 73.1785,131.334 68.5,131.5C 68.1667,131.5 67.8333,131.5 67.5,131.5C 66.1667,130.833 64.8333,130.167 63.5,129.5 Z"/></g>
<g><path style="opacity:1" fill="#24234b" d="M 105.5,130.5 C 107.167,130.5 108.833,130.5 110.5,130.5C 113.833,130.5 117.167,130.5 120.5,130.5C 117.5,131.167 114.5,131.833 111.5,132.5C 109.102,132.741 107.102,132.074 105.5,130.5 Z"/></g>
<g><path style="opacity:1" fill="#ae50b6" d="M 83.5,130.5 C 84.1667,130.5 84.8333,130.5 85.5,130.5C 88.1667,131.833 90.8333,131.833 93.5,130.5C 92.6935,131.728 91.6935,132.728 90.5,133.5C 89.4168,133.539 88.4168,133.873 87.5,134.5C 86.4513,132.784 85.118,131.451 83.5,130.5 Z"/></g>
<g><path style="opacity:1" fill="#201d28" d="M 159.5,123.5 C 158.571,124.315 157.571,125.148 156.5,126C 157.167,126.333 157.833,126.667 158.5,127C 155.118,127.176 151.785,127.676 148.5,128.5C 147.221,130.146 145.555,131.313 143.5,132C 132.849,131.331 122.182,131.498 111.5,132.5C 114.5,131.833 117.5,131.167 120.5,130.5C 122.833,130.5 125.167,130.5 127.5,130.5C 130.85,130.665 134.183,130.498 137.5,130C 139.935,129.925 140.602,129.092 139.5,127.5C 141.857,127.663 144.19,127.497 146.5,127C 147.942,126.623 148.942,125.79 149.5,124.5C 152.86,124.384 156.193,124.051 159.5,123.5 Z"/></g>
<g><path style="opacity:1" fill="#261a2d" d="M 68.5,131.5 C 73.1785,131.334 77.8452,131.501 82.5,132C 84.4257,132.422 85.4257,133.589 85.5,135.5C 82.9148,132.867 80.2482,132.867 77.5,135.5C 74.0345,134.913 71.0345,133.579 68.5,131.5 Z"/></g>
<g><path style="opacity:1" fill="#201e27" d="M 105.5,118.5 C 106.72,122.277 106.72,125.61 105.5,128.5C 104.494,129.396 104.494,130.062 105.5,130.5C 107.102,132.074 109.102,132.741 111.5,132.5C 112.334,133.748 113.667,134.415 115.5,134.5C 121.863,135.237 128.196,135.571 134.5,135.5C 134.291,136.086 133.957,136.586 133.5,137C 129.833,137.167 126.167,137.333 122.5,137.5C 118.405,137.458 114.571,136.792 111,135.5C 110.727,137.101 110.227,138.601 109.5,140C 109.833,140.333 110.167,140.667 110.5,141C 119.167,141.906 127.834,142.572 136.5,143C 126.167,143.667 115.833,143.667 105.5,143C 103.185,140.524 103.518,138.191 106.5,136C 104.038,129.496 101.038,129.162 97.5,135C 100.335,137.842 99.8351,140.008 96,141.5C 95.502,138.518 95.3354,135.518 95.5,132.5C 98.9833,131.137 100.65,128.47 100.5,124.5C 101.708,125.234 103.041,125.567 104.5,125.5C 104.38,123.801 104.046,122.135 103.5,120.5C 103.747,119.287 104.414,118.62 105.5,118.5 Z"/></g>
</svg>
