<?xml version="1.0" encoding="UTF-8"?>
<svg id="Layer_1" data-name="Layer 1" xmlns="http://www.w3.org/2000/svg" xmlns:xlink="http://www.w3.org/1999/xlink" viewBox="0 0 837.68 576.3">
  <defs>
    <style>
      .cls-1 {
        filter: url(#drop-shadow-2);
      }

      .cls-2 {
        fill: #fff;
        stroke-width: 0px;
      }
    </style>
    <filter id="drop-shadow-2" filterUnits="userSpaceOnUse">
      <feOffset dx="2" dy="2"/>
      <feGaussianBlur result="blur" stdDeviation="3"/>
      <feFlood flood-color="#000" flood-opacity=".75"/>
      <feComposite in2="blur" operator="in"/>
      <feComposite in="SourceGraphic"/>
    </filter>
  </defs>
  <g class="cls-1">
    <path class="cls-2" d="M288.6,309.89c0-72.45,58.76-131.17,131.21-131.17s131.21,58.72,131.21,131.17c0,36.96-15.28,70.36-39.84,94.17,76.09-9.71,136.61-30.01,176.45-46.16v-147.45c0-32.81-26.58-59.39-59.39-59.39h-59.22c-13.69,0-24.78-11.09-24.78-24.78l-9.17-31.47c0-11.09-8.96-20.05-20.05-20.05h-188.21c-11.05,0-20.05,8.96-20.05,20.05l-7.03,31.47c0,13.69-11.09,24.78-24.78,24.78h-60.14c-32.81,0-59.39,26.58-59.39,59.39v147.45c39.89,16.16,98.9,35.83,172.52,45.7-24.28-23.81-39.34-57-39.34-93.71Z"/>
    <path class="cls-2" d="M497.2,312.44c0-43.36-35.16-78.52-78.47-78.52s-78.52,35.16-78.52,78.52,35.16,78.47,78.52,78.47,78.47-35.16,78.47-78.47Z"/>
    <path class="cls-2" d="M99.31,413.17c103.95,56.46,281.55,66.79,281.55,66.79v21.58l57.54-45.21-58.57-43.16v19.52c-94.54,6.17-218.87-27.74-278.47-72.96-59.6-45.21,28.77-87.34,28.77-87.34v-49.32c-54.46,22.61-79.12,57.54-79.12,57.54,0,0-55.27,76.31,48.3,132.56Z"/>
    <path class="cls-2" d="M751.88,341.65c-25.08,46.58-114.65,84.2-293.79,91.36l29.56,23.29-29.56,24.18s178.87-15.35,253.49-51.95c76.68-37.61,98.53-70.76,86.88-122.71-11.64-51.95-89.57-82.74-89.57-82.74v48.7s68.07,23.29,42.99,69.87Z"/>
  </g>
</svg>